<?xml version="1.0" standalone="no"?>
<!DOCTYPE svg PUBLIC "-//W3C//DTD SVG 1.1//EN" "http://www.w3.org/Graphics/SVG/1.1/DTD/svg11.dtd" >
<svg xmlns="http://www.w3.org/2000/svg">
<metadata></metadata>
<defs>
<font id="quattrocento_sansregular" horiz-adv-x="1314" >
<font-face units-per-em="2048" ascent="1638" descent="-410" />
<missing-glyph horiz-adv-x="501" />
<glyph unicode="&#xfb01;" horiz-adv-x="1071" d="M209 846h-158v76l158 18q0 199 26.5 312.5t71.5 172.5q47 66 101.5 83.5t107.5 17.5q102 0 184 -34t138 -69l-70 -123q-92 57 -155.5 88t-123.5 31q-45 0 -71.5 -19.5t-41 -62.5t-19.5 -110.5t-5 -161.5v-123h221v-96h-221v-846h-143v846zM915 0h-143v942h143v-942z" />
<glyph unicode="&#xfb02;" horiz-adv-x="1099" d="M209 846h-158v76l158 18q0 111 11 190.5t29.5 137t40 95.5t44.5 62q51 59 104.5 80t100.5 21q20 0 53 -1t75 -6.5t91 -16.5t98 -29l72 43v-1516h-144v1362q-57 29 -133 43t-151 14q-33 0 -60.5 -18.5t-47 -59.5t-30 -108.5t-10.5 -167.5v-123h221v-96h-221v-846h-143v846 z" />
<glyph horiz-adv-x="0" />
<glyph unicode="&#xd;" horiz-adv-x="501" />
<glyph horiz-adv-x="0" />
<glyph horiz-adv-x="0" />
<glyph unicode=" "  horiz-adv-x="501" />
<glyph unicode="&#x09;" horiz-adv-x="501" />
<glyph unicode="&#xa0;" horiz-adv-x="501" />
<glyph unicode="!" horiz-adv-x="528" d="M170 72q0 39 27.5 68.5t68.5 29.5q37 0 66.5 -29.5t29.5 -68.5t-29.5 -67t-66.5 -28q-41 0 -68.5 28t-27.5 67zM215 307l-49 1090h199l-54 -1090h-96z" />
<glyph unicode="&#x22;" horiz-adv-x="684" d="M164 1057l-43 442h166l-49 -442h-74zM444 1057l-43 442h166l-49 -442h-74z" />
<glyph unicode="#" horiz-adv-x="1257" d="M934 913h248l-21 -106h-250l-53 -244h262l-20 -108h-264l-97 -455h-131l97 455h-259l-96 -455h-131l96 455h-237l20 108h240l53 244h-252l21 106h254l90 426h131l-90 -426h258l90 426h131zM469 563h258l53 244h-258z" />
<glyph unicode="$" horiz-adv-x="1083" d="M614 1360q90 -6 170 -26.5t140 -49.5l-43 -158q-51 45 -124 68t-143 29v-449q72 -25 141.5 -55.5t124 -77.5t88 -114.5t33.5 -166.5q0 -94 -30.5 -162.5t-83.5 -114.5t-124 -70.5t-149 -32.5v-177h-122v174q-121 4 -224.5 36t-179.5 75l43 150q74 -51 154 -87t207 -40 v530q-86 29 -155 61.5t-117 76.5t-73.5 102.5t-25.5 138.5q0 82 27.5 143.5t77.5 102.5t118 63.5t148 28.5v178h122v-176zM844 332q0 53 -19.5 94t-51.5 72.5t-73 55.5t-86 42v-479q123 16 176.5 74.5t53.5 140.5zM270 1026q0 -41 13.5 -71.5t40 -54t68.5 -43t100 -40.5v406 q-104 -10 -163 -57.5t-59 -139.5z" />
<glyph unicode="%" horiz-adv-x="1675" d="M381 1362q72 0 128 -31t94 -82t58.5 -119.5t20.5 -144.5q0 -74 -20.5 -143.5t-59.5 -122.5t-97.5 -85t-131.5 -32q-72 0 -127.5 30t-92 81t-55 119.5t-18.5 144.5q0 80 20.5 150.5t59.5 123t94 82t127 29.5zM375 694q51 0 88 22.5t60.5 61.5t34.5 91.5t11 111.5 q0 129 -47 209t-145 80q-100 0 -141 -79t-41 -202q0 -147 47 -221t133 -74zM428 -49h-133l948 1464h133zM1298 745q72 0 128.5 -30.5t94.5 -81.5t58 -120t20 -144q0 -74 -20 -143.5t-59 -123t-97.5 -85t-132.5 -31.5q-72 0 -127 29.5t-92 80.5t-55.5 120t-18.5 144 q0 80 20.5 151t59.5 123t94 81.5t127 29.5zM1292 78q51 0 88 22.5t60.5 61.5t35 91t11.5 112q0 129 -47 208.5t-146 79.5q-100 0 -141 -78.5t-41 -201.5q0 -147 47 -221t133 -74z" />
<glyph unicode="&#x26;" horiz-adv-x="1435" d="M1370 874v-126l-274 -25q63 -117 63 -242q0 -133 -69 -250l225 -231h-172l-131 133q-72 -72 -175.5 -115t-234.5 -43q-117 0 -206 32t-148.5 86t-89 124t-29.5 143q0 55 17.5 113.5t51 112t86 98.5t119.5 74q-59 70 -91.5 139.5t-32.5 159.5q0 76 23.5 132t65.5 95 t97 58.5t117 19.5q70 0 142.5 -23.5t141.5 -66.5l-41 -146q-47 45 -112.5 74t-126.5 29q-68 0 -116 -42t-48 -140q0 -68 26.5 -123.5t77.5 -108.5l467 -483q33 78 33 157q0 61 -17.5 115.5t-50.5 106.5l-102 -9v97zM621 111q98 0 171.5 31.5t127.5 84.5l-426 437 q-96 -33 -152.5 -109t-56.5 -176q0 -66 25.5 -115t69.5 -84t105.5 -52t135.5 -17z" />
<glyph unicode="'" horiz-adv-x="403" d="M164 1057l-43 442h166l-49 -442h-74z" />
<glyph unicode="(" horiz-adv-x="636" d="M594 1552q-84 -94 -142.5 -192t-95.5 -205.5t-53 -227.5t-16 -257q0 -84 7 -185.5t37.5 -215t92 -235.5t168.5 -247l-76 -27q-197 176 -305.5 412t-108.5 498t108.5 495.5t305.5 413.5z" />
<glyph unicode=")" horiz-adv-x="636" d="M121 1579q197 -180 305.5 -413.5t108.5 -495.5t-109 -497.5t-305 -412.5l-76 27q106 125 167.5 247t92.5 235.5t38 215t7 185.5q0 137 -16.5 257t-53 227.5t-95 205.5t-142.5 192z" />
<glyph unicode="*" horiz-adv-x="899" d="M485 1163l222 166l67 -119l-252 -110l252 -109l-65 -117l-224 162l31 -270h-133l29 270l-222 -162l-65 117l252 109l-252 110l68 119l219 -166l-29 275h135z" />
<glyph unicode="+" horiz-adv-x="1017" d="M561 543h352v-107h-352v-352h-106v352h-351v107h351v331h106v-331z" />
<glyph unicode="," horiz-adv-x="497" d="M139 -160l80 150h-51v184h162v-215l-150 -158z" />
<glyph unicode="-" horiz-adv-x="995" d="M844 543v-107h-692v107h692z" />
<glyph unicode="." horiz-adv-x="481" d="M145 72q0 39 27 68.5t68 29.5q39 0 68.5 -29.5t29.5 -68.5t-29.5 -67t-68.5 -28q-41 0 -68 28t-27 67z" />
<glyph unicode="/" horiz-adv-x="868" d="M227 -117h-153l569 1555h154z" />
<glyph unicode="0" horiz-adv-x="1329" d="M666 1362q131 0 232 -55.5t171 -150.5t105.5 -220t35.5 -262q0 -135 -36.5 -261t-107.5 -223.5t-175.5 -156t-239.5 -58.5q-133 0 -232.5 55.5t-165 149.5t-99 218t-33.5 261q0 145 37 273.5t106.5 223.5t171 150.5t230.5 55.5zM655 111q100 0 174 43t121 118.5t69.5 177 t22.5 218.5q0 125 -23.5 227t-71.5 176t-119.5 115t-168.5 41q-98 0 -168.5 -40t-114.5 -113t-64.5 -173t-20.5 -221q0 -283 95 -426t269 -143z" />
<glyph unicode="1" horiz-adv-x="649" d="M446 0h-153v1077l-197 -94l-45 143l395 226v-1352z" />
<glyph unicode="2" horiz-adv-x="1042" d="M115 1262q39 20 88 38.5t101 33t106.5 21.5t103.5 7q88 0 162 -24.5t126 -67.5t80.5 -104.5t28.5 -135.5q0 -115 -63.5 -225.5t-158.5 -220t-207.5 -220t-211.5 -221.5h656v-143h-830v143q92 119 205 232.5t211 222.5t163.5 215.5t65.5 214.5q0 41 -11 77t-38.5 63.5 t-72 43t-109.5 15.5q-45 0 -95 -7.5t-99.5 -21.5t-92.5 -32.5t-71 -39.5z" />
<glyph unicode="3" horiz-adv-x="1095" d="M158 1262q35 20 79 38.5t91 33t94 21.5t88 7q182 0 292.5 -89t110.5 -263q0 -86 -56 -159t-138 -116q123 -41 191.5 -123t68.5 -217q0 -86 -30.5 -161.5t-94 -133t-158 -91.5t-221.5 -34q-119 0 -220 34t-179 93l41 138q72 -59 160 -94t192 -35q166 0 253 76.5t87 224.5 q0 117 -79 185.5t-265 68.5h-55v116h63q129 0 199.5 65.5t70.5 178.5q0 90 -49 145.5t-172 55.5q-47 0 -94 -8.5t-90 -21.5t-81 -31.5t-62 -39.5z" />
<glyph unicode="4" horiz-adv-x="1040" d="M940 430h-141v-430h-154v430h-582v143l572 779h164v-779h141v-143zM645 573v555l-407 -555h407z" />
<glyph unicode="5" horiz-adv-x="1101" d="M158 649l75 713h695v-143h-566l-53 -437q63 14 133 23.5t129 9.5q92 0 171 -25.5t135.5 -74.5t88 -122t31.5 -167q0 -90 -30.5 -172t-93 -143.5t-156.5 -98.5t-221 -37q-119 0 -220.5 34t-179.5 93l43 144q76 -59 160 -97t199 -38q156 0 243.5 76.5t87.5 224.5 q0 57 -15 105t-53 82t-99.5 52.5t-153.5 18.5q-72 0 -147.5 -12.5t-143.5 -39.5z" />
<glyph unicode="6" horiz-adv-x="1128" d="M281 670q25 45 61.5 73.5t81.5 46t94 24.5t98 7q129 0 209 -44t124 -107.5t60.5 -136t16.5 -127.5q0 -74 -23.5 -151t-76 -139.5t-135 -101.5t-199.5 -39q-129 0 -217 45.5t-142.5 129t-79 200.5t-24.5 262q0 141 23.5 275.5t82 239t156.5 169t246 64.5q33 0 76 -4 t88 -15.5t87 -31t73 -47.5l-35 -136q-70 57 -148 79t-139 22q-106 0 -177 -44t-113 -115t-59.5 -160t-17.5 -177v-29.5t2 -29.5zM866 408q0 55 -13 107t-43 92t-80 64.5t-124 24.5q-154 0 -225.5 -86t-71.5 -215q0 -135 74 -215t209 -80q127 0 200.5 81.5t73.5 226.5z" />
<glyph unicode="7" horiz-adv-x="935" d="M164 0q-2 18 -2 39.5v40.5q0 129 54 282.5t138 308t187.5 297t199.5 251.5h-659v143h829v-143q-102 -102 -204.5 -249t-184.5 -306.5t-132 -313t-50 -268.5v-43.5t2 -38.5h-178z" />
<glyph unicode="8" horiz-adv-x="1142" d="M776 741q119 -27 183.5 -123t64.5 -233q0 -86 -26.5 -160.5t-83 -130t-142.5 -87.5t-203 -32q-123 0 -209 34t-139 90.5t-77.5 130t-24.5 151.5q0 135 65.5 229.5t182.5 128.5v9q-72 27 -126.5 100.5t-54.5 185.5q0 147 100.5 237.5t284.5 90.5q180 0 282.5 -87 t102.5 -235q0 -109 -52 -183.5t-128 -106.5v-9zM854 371q0 57 -15.5 111.5t-50 96.5t-89 67.5t-130.5 25.5q-78 0 -132 -25.5t-88 -67.5t-49 -96.5t-15 -111.5q0 -129 72.5 -200t211.5 -71t212 71t73 200zM788 1026q0 86 -48 146.5t-171 60.5q-121 0 -170 -58.5t-49 -148.5 q0 -102 56.5 -166.5t162.5 -64.5t162.5 64.5t56.5 166.5z" />
<glyph unicode="9" horiz-adv-x="1130" d="M850 666q-25 -45 -61.5 -74t-81.5 -46.5t-94.5 -24.5t-98.5 -7q-129 0 -209 44t-124 107.5t-60.5 136t-16.5 128.5q0 74 24 150.5t76 139t135 101.5t200 39q129 0 217 -45t142 -129t78.5 -202t24.5 -261q0 -141 -23.5 -275.5t-81.5 -239t-156.5 -169t-245.5 -64.5 q-33 0 -76 4.5t-88 15.5t-87 30.5t-73 48.5l35 135q70 -57 147.5 -78.5t139.5 -21.5q106 0 176.5 44t112.5 114.5t59.5 159.5t17.5 177v29.5t-2 30.5zM264 928q0 -55 13.5 -107.5t43 -92.5t80 -64.5t123.5 -24.5q154 0 225.5 86t71.5 215q0 135 -73.5 215t-208.5 80 q-127 0 -201 -81t-74 -226z" />
<glyph unicode=":" horiz-adv-x="495" d="M152 72q0 39 26.5 68.5t67.5 29.5q39 0 68.5 -29.5t29.5 -68.5t-29.5 -67t-68.5 -28q-41 0 -67.5 28t-26.5 67zM152 836q0 39 26.5 67.5t67.5 28.5q39 0 68.5 -29t29.5 -67q0 -41 -29.5 -69t-68.5 -28q-41 0 -67.5 28t-26.5 69z" />
<glyph unicode=";" horiz-adv-x="520" d="M170 836q0 39 26.5 67.5t67.5 28.5q39 0 68.5 -29t29.5 -67q0 -41 -29.5 -69t-68.5 -28q-41 0 -67.5 28t-26.5 69zM154 -160l79 150h-51v184h162v-215l-149 -158z" />
<glyph unicode="&#x3c;" horiz-adv-x="835" d="M295 487l405 -272l-36 -131l-586 403v11l584 397l36 -129l-403 -268v-11z" />
<glyph unicode="=" horiz-adv-x="1003" d="M848 387v-106h-692v106h692zM848 698v-106h-692v106h692z" />
<glyph unicode="&#x3e;" horiz-adv-x="835" d="M541 498l-404 268l37 129l584 -397v-11l-586 -403l-37 131l406 272v11z" />
<glyph unicode="?" horiz-adv-x="843" d="M281 74q0 41 27.5 68.5t66.5 27.5t68.5 -27.5t29.5 -68.5q0 -39 -29.5 -68t-68.5 -29t-66.5 29t-27.5 68zM82 1305q55 43 137 71.5t160 28.5q82 0 148.5 -24.5t112.5 -67.5t70.5 -104.5t24.5 -135.5q0 -61 -21.5 -115.5t-55 -108.5t-71.5 -109.5t-72 -120t-56.5 -140.5 t-22.5 -170h-131q0 102 20.5 182t52.5 144.5t68.5 118t68.5 103.5t52.5 102.5t20.5 115.5q0 82 -52.5 139.5t-158.5 57.5q-33 0 -70 -8.5t-71.5 -21.5t-65.5 -32.5t-51 -40.5z" />
<glyph unicode="@" horiz-adv-x="1480" d="M903 717q-12 12 -51 12q-68 0 -116 -37t-78.5 -91t-45 -117.5t-14.5 -114.5q0 -68 18.5 -99.5t47.5 -31.5q27 0 56.5 21.5t56 55t48 74.5t29.5 80zM1184 -47q-20 -18 -64.5 -46t-106 -53.5t-137 -43t-159.5 -17.5q-123 0 -231.5 41t-190.5 116t-130 181.5t-48 237.5 q0 117 42 249t130 244.5t224 186t325 73.5q143 0 248.5 -45t174 -116.5t101.5 -161.5t33 -183q0 -90 -30 -174t-85 -148.5t-132 -103t-171 -38.5q-49 0 -79 11t-45 30.5t-20.5 47t-5.5 60.5q-35 -70 -87 -110.5t-105 -40.5q-31 0 -61.5 15t-55 46t-40 77t-15.5 107 q0 92 34.5 166t91 126t126 81t139.5 29q49 0 107.5 -16.5t93.5 -51.5l-76 -364q-4 -23 -6 -40.5t-2 -31.5q0 -29 12 -43t47 -14q53 0 97 31.5t76 83.5t49.5 120t17.5 137q0 76 -24.5 151t-77 134t-134.5 96t-198 37q-145 0 -256 -58.5t-184.5 -152.5t-111.5 -211t-38 -235 q0 -127 40 -217.5t107.5 -148.5t156.5 -85t187 -27q84 0 156 17.5t129 43t98 54.5t64 49v-102z" />
<glyph unicode="A" d="M1331 0h-174l-199 455h-604l-180 -455h-164l541 1352h186zM412 598h483l-254 582z" />
<glyph unicode="B" horiz-adv-x="1144" d="M203 1352q66 4 153.5 7t161.5 3q182 0 293 -89t111 -263q0 -82 -34 -148.5t-106 -113.5q123 -41 192.5 -129.5t69.5 -223.5q0 -86 -30.5 -161.5t-94 -133t-157.5 -91.5t-221 -34q-100 0 -186.5 7.5t-151.5 17.5v1352zM535 111q166 0 252.5 76.5t86.5 224.5 q0 117 -78.5 185.5t-265.5 68.5q-45 0 -89 -1t-85 -3v-545q81 -6 179 -6zM481 782q129 0 200 65.5t71 178.5q0 90 -49.5 145.5t-172.5 55.5q-45 0 -89 -1t-85 -3v-439q29 -2 60.5 -2h64.5z" />
<glyph unicode="C" d="M1161 1126q-66 43 -162 72t-219 29q-137 0 -231 -40t-152.5 -111.5t-84 -173t-25.5 -224.5q0 -281 122.5 -424t366.5 -143q129 0 237.5 36.5t174.5 90.5l41 -138q-82 -49 -198 -87t-261 -38q-168 0 -291 55.5t-203.5 149.5t-119.5 218t-39 264q0 145 43 272t128 222 t211 150.5t294 55.5q111 0 221 -23.5t190 -64.5z" />
<glyph unicode="D" horiz-adv-x="1441" d="M203 1352h10q98 4 213 7t223 3q145 0 265 -41t204 -113q109 -98 158 -239.5t49 -306.5q0 -139 -39 -263.5t-120 -218.5t-203.5 -149.5t-290.5 -55.5q-145 0 -261 7.5t-208 17.5v1352zM662 1227q-82 0 -161 -1t-145 -5v-1098q129 -12 310 -12q244 0 366.5 143t122.5 424 q0 123 -25.5 224.5t-84 173t-152.5 111.5t-231 40z" />
<glyph unicode="E" horiz-adv-x="1069" d="M985 0h-782v1352h741v-144h-588v-420h451v-143h-451v-502h629v-143z" />
<glyph unicode="F" horiz-adv-x="983" d="M784 645h-428v-645h-153v1352h731v-144h-578v-420h428v-143z" />
<glyph unicode="G" horiz-adv-x="1376" d="M1243 113q-92 -61 -210 -99.5t-263 -38.5q-168 0 -291 55.5t-203.5 149.5t-119.5 218t-39 264q0 145 43 272t128 222t211 150.5t294 55.5q119 0 231.5 -23.5t200.5 -64.5l-43 -148q-66 43 -169.5 72t-232.5 29q-137 0 -231 -40t-152.5 -111.5t-84 -173t-25.5 -224.5 q0 -281 122.5 -424t366.5 -143q90 0 169 18t145 47v381h153v-444z" />
<glyph unicode="H" horiz-adv-x="1441" d="M356 768h729v584h154v-1352h-154v625h-729v-625h-153v1352h153v-584z" />
<glyph unicode="I" horiz-adv-x="559" d="M356 0h-153v1352h153v-1352z" />
<glyph unicode="J" horiz-adv-x="557" d="M356 207q0 -109 -21.5 -204t-65.5 -167t-110.5 -113.5t-158.5 -41.5l-29 112q80 0 127 39t69.5 99.5t29 134t6.5 143.5v1143h153v-1145z" />
<glyph unicode="K" horiz-adv-x="1224" d="M356 713q57 39 103.5 77.5t105.5 96.5q100 98 202.5 220t188.5 245h177q-49 -72 -107.5 -147t-120 -147.5t-122 -138t-113.5 -118.5q-23 -23 -42.5 -41.5t-37.5 -34.5l627 -725h-191l-549 627l-121 -92v-535h-153v1352h153v-639z" />
<glyph unicode="L" horiz-adv-x="995" d="M961 0h-758v1352h153v-1209h605v-143z" />
<glyph unicode="M" horiz-adv-x="1726" d="M868 193l459 1159h197v-1352h-154v1022l-414 -1022h-184l-416 1024v-1024h-153v1352h207z" />
<glyph unicode="N" horiz-adv-x="1441" d="M356 1106v-1106h-153v1352h186l696 -1108v1108h154v-1352h-186z" />
<glyph unicode="O" horiz-adv-x="1548" d="M774 1362q160 0 283 -55.5t207 -150.5t127 -220t43 -262q0 -135 -42 -261t-127 -223.5t-211 -156t-294 -58.5q-164 0 -285 55.5t-200.5 149.5t-119.5 218t-40 261q0 145 44 273.5t128 223.5t206.5 150.5t280.5 55.5zM764 111q133 0 228 43t155.5 118.5t89.5 177t29 218.5 q0 125 -30 227t-90.5 176t-154.5 115t-223 41q-131 0 -223 -40t-149.5 -113t-84 -173t-26.5 -221q0 -283 123 -426t356 -143z" />
<glyph unicode="P" horiz-adv-x="1083" d="M203 1352h8q66 4 145.5 7t151.5 3q111 0 201 -27.5t154.5 -83t100 -136.5t35.5 -187q0 -86 -28.5 -162t-86 -133.5t-146.5 -91t-208 -33.5q-98 0 -174 6v-514h-153v1352zM520 1227q-43 0 -85 -1t-79 -3v-574q74 -6 168 -6q152 0 228.5 77t76.5 224q0 63 -16 115.5 t-52 89.5t-95.5 57.5t-145.5 20.5z" />
<glyph unicode="Q" horiz-adv-x="1554" d="M778 1362q160 0 283 -55.5t207 -150.5t127 -220t43 -262q0 -131 -40 -254t-119 -218.5t-197.5 -155.5t-276.5 -69q72 -8 140.5 -33.5t138 -52t141 -48t149.5 -21.5q82 0 174 39l-39 -131q-39 -20 -77.5 -26.5t-73.5 -6.5q-86 0 -168 28.5t-159 62.5t-149.5 62.5 t-140.5 28.5q-49 0 -118.5 -18.5t-133.5 -65.5l-28 96q53 41 116.5 61.5t122.5 24.5q-147 10 -255.5 69.5t-181.5 152t-108.5 211t-35.5 249.5q0 145 44 273.5t128 223.5t206.5 150.5t280.5 55.5zM772 111q131 0 226.5 43t154.5 118.5t88 179t29 222.5q0 123 -30 224 t-91.5 174t-155.5 114t-225 41q-129 0 -220 -40t-148.5 -114t-84 -175t-26.5 -224q0 -279 123.5 -421t359.5 -142z" />
<glyph unicode="R" horiz-adv-x="1218" d="M203 1352q72 4 152.5 7t152.5 3q111 0 201 -25.5t154.5 -75t100 -122t35.5 -166.5q0 -131 -73.5 -233.5t-227.5 -143.5l519 -596h-191l-506 578q-90 0 -164 6v-584h-153v1352zM520 1227q-43 0 -85 -1t-79 -3v-506q37 -4 79 -4h89q152 0 228.5 70.5t76.5 205.5 q0 106 -68.5 172t-240.5 66z" />
<glyph unicode="S" horiz-adv-x="1128" d="M283 1026q0 -51 19.5 -85t61.5 -60.5t106.5 -50t154.5 -54.5q76 -25 149.5 -56.5t132 -77.5t93 -114.5t34.5 -167.5q0 -104 -41 -177.5t-108.5 -120t-155.5 -67t-182 -20.5q-133 0 -248 33t-199 80l43 150q39 -27 78 -50.5t85 -40t101.5 -26.5t127.5 -10q92 0 157.5 16 t106.5 46t59.5 71t18.5 88q0 70 -33 118t-85 82.5t-114.5 58t-124.5 44.5q-88 29 -159.5 61.5t-122 77.5t-78 104.5t-27.5 141.5q0 92 34 156.5t92 105.5t138 60.5t172 19.5q111 0 213.5 -22.5t173.5 -55.5l-43 -158q-33 29 -76.5 48.5t-92 31t-95.5 16.5t-88 5 q-129 0 -203.5 -48.5t-74.5 -152.5z" />
<glyph unicode="T" horiz-adv-x="1091" d="M1055 1208h-432v-1208h-154v1208h-432v144h1018v-144z" />
<glyph unicode="U" horiz-adv-x="1409" d="M342 524q0 -221 97.5 -317t269.5 -96t270 96t98 317v828h144v-897q0 -100 -31 -187.5t-94.5 -152t-159.5 -101.5t-227 -37q-143 0 -242.5 37t-161 101.5t-89.5 151.5t-28 188v897h154v-828z" />
<glyph unicode="V" horiz-adv-x="1318" d="M-14 1352h174l514 -1180l469 1180h164l-537 -1352h-195z" />
<glyph unicode="W" horiz-adv-x="2213" d="M1106 1118l-381 -1118h-195l-532 1352h174l455 -1157l395 1157h174l420 -1153l412 1153h163l-481 -1352h-194z" />
<glyph unicode="X" horiz-adv-x="1323" d="M655 584l-448 -584h-176l536 698l-506 654h183l422 -547l421 547h177l-510 -662l536 -690h-182z" />
<glyph unicode="Y" horiz-adv-x="1159" d="M-23 1352h183l428 -650l413 650h179l-523 -797v-555h-153v547z" />
<glyph unicode="Z" horiz-adv-x="1134" d="M1047 0h-959v143l754 1065h-723v144h897v-144l-754 -1065h785v-143z" />
<glyph unicode="[" horiz-adv-x="585" d="M512 -195h-328v1729h328v-86h-195v-1557h195v-86z" />
<glyph unicode="\" horiz-adv-x="864" d="M72 1438h149l570 -1555h-150z" />
<glyph unicode="]" horiz-adv-x="585" d="M74 1534h327v-1729h-327v86h194v1557h-194v86z" />
<glyph unicode="^" horiz-adv-x="712" d="M365 1378l225 -202l6 -15l-12 -39l-15 -6l-213 125l-213 -125l-14 6l-12 39l6 15l225 202h17z" />
<glyph unicode="_" horiz-adv-x="1001" d="M944 0v-106h-887v106h887z" />
<glyph unicode="`" horiz-adv-x="448" d="M420 1124l-412 158q-8 18 -8 39q0 29 18.5 49.5t53.5 22.5l370 -207l7 -15l-13 -41z" />
<glyph unicode="a" horiz-adv-x="1019" d="M758 0l-17 168h-8q-25 -39 -65.5 -74t-91 -61.5t-108.5 -42t-116 -15.5q-135 0 -202.5 79t-67.5 198q0 117 59.5 186.5t145.5 104.5t181 45t167 10h92v25q0 78 -21.5 118.5t-62.5 69.5q-35 23 -75 32t-105 9q-86 0 -151.5 -22.5t-127.5 -59.5l-32 123q137 80 327 80 q76 0 143.5 -13.5t118.5 -46.5q59 -37 94 -104.5t35 -167.5v-641h-112zM395 96q84 0 178.5 53.5t153.5 153.5v191h-18q-84 0 -168 -6.5t-153 -31t-112 -70.5t-43 -126t44 -122t118 -42z" />
<glyph unicode="b" horiz-adv-x="1177" d="M666 -25q-131 0 -225.5 58.5t-143.5 134.5h-8l-17 -168h-112v1516h143v-750q27 88 117 147.5t223 59.5q109 0 190.5 -41t136 -109.5t82 -161t27.5 -192.5q0 -98 -25.5 -187t-76.5 -157t-129 -109t-182 -41zM649 96q78 0 131.5 33t86 85t47 117.5t14.5 131.5 q0 86 -21.5 157.5t-60.5 123t-96.5 80t-126.5 28.5q-109 0 -196 -65.5t-124 -182.5v-301q59 -98 153.5 -152.5t192.5 -54.5z" />
<glyph unicode="c" horiz-adv-x="1024" d="M895 770q-47 35 -135 62.5t-176 27.5q-90 0 -152.5 -30.5t-103.5 -82t-59.5 -118t-18.5 -137.5q0 -80 22.5 -154t66.5 -129t108.5 -88t150.5 -33q82 0 169 35t144 88l29 -133q-57 -37 -156.5 -70t-212.5 -33q-119 0 -208 41t-147 110t-88 160t-30 193q0 98 28 187.5 t87 158t151.5 108.5t221.5 40q98 0 192 -22.5t152 -59.5z" />
<glyph unicode="d" horiz-adv-x="1177" d="M512 -25q-104 0 -182 41t-129 109t-77 157t-26 187q0 100 28 192.5t82 161t136 109.5t191 41q137 0 225 -59.5t114 -147.5v750h144v-1516h-113l-16 168h-8q-49 -76 -143.5 -134.5t-225.5 -58.5zM528 96q98 0 193.5 53.5t152.5 153.5v301q-37 117 -123.5 182.5 t-195.5 65.5q-72 0 -128 -28.5t-95 -80t-60.5 -123t-21.5 -157.5q0 -66 14.5 -131.5t47 -117.5t85.5 -85t131 -33z" />
<glyph unicode="e" horiz-adv-x="1058" d="M582 973q180 0 278 -91t98 -257q0 -35 -4 -71t-14 -52h-690v-21q0 -78 20.5 -149.5t61.5 -126.5t103.5 -88t148.5 -33q49 0 96 11t90 28.5t80 38t65 41.5l25 -117q-27 -16 -65.5 -35.5t-86 -36t-103.5 -28t-118 -11.5q-115 0 -203 40t-147 109t-90 159t-31 188 q0 100 32 191.5t93.5 161t152.5 109.5t208 40zM575 858q-135 0 -209.5 -70.5t-101.5 -177.5h559q2 10 2 18.5v18.5q0 51 -20.5 91t-55 66.5t-80 40t-94.5 13.5z" />
<glyph unicode="f" horiz-adv-x="610" d="M209 846h-158v76l158 18q0 115 7 197t19.5 138t28 92t29.5 58q39 57 96 79t119 22q8 0 28.5 -1t46 -4t52.5 -10.5t51 -19.5l-35 -121q-6 0 -28.5 7t-50 16.5t-59.5 17.5t-56 8q-31 0 -51.5 -17.5t-32 -57t-16.5 -105t-5 -162.5v-135h221v-96h-221v-846h-143v846z" />
<glyph unicode="g" horiz-adv-x="1040" d="M289 291q-98 39 -141.5 124t-43.5 183q0 80 27 147.5t77 118.5t120.5 80t160.5 29q53 0 105.5 -10.5t91.5 -30.5q86 2 161 10t140 27l10 -8l-14 -113l-10 -10l-187 8l-2 -6q53 -43 78 -113t25 -135q0 -68 -25.5 -129.5t-75 -107.5t-122 -73.5t-166.5 -27.5q-23 0 -39.5 1 t-30.5 1q-43 -14 -64.5 -38.5t-21.5 -41.5q0 -20 27.5 -35.5t89.5 -21.5l198 -21q68 -6 126.5 -27.5t101.5 -55t68.5 -82t25.5 -109.5q0 -59 -26.5 -121.5t-80.5 -108.5q-53 -45 -147 -73.5t-217 -28.5q-104 0 -187 21.5t-139.5 59.5t-86 87t-29.5 104q0 41 16 81t43 75 t62.5 61.5t74.5 41.5v8q-84 39 -84 106q0 43 32 78t79 68v8zM498 356q57 0 101 19.5t75 51.5t47 75t16 90t-16 96t-48 89t-79 64.5t-109 24.5q-59 0 -103 -23.5t-73.5 -60.5t-44 -82t-14.5 -90q0 -47 15.5 -92t47 -81t78 -58.5t107.5 -22.5zM432 -10q-47 0 -87 -18.5 t-69.5 -47t-47 -64.5t-17.5 -71q0 -78 83 -124t224 -46q68 0 126 11.5t100 35t67 57t25 80.5q0 92 -99.5 132.5t-304.5 54.5z" />
<glyph unicode="h" horiz-adv-x="1116" d="M821 0v623q0 125 -55 177t-141 52q-51 0 -101.5 -16.5t-93.5 -48t-75.5 -77.5t-51.5 -106v-604h-143v1516h143v-750q27 86 116 146.5t226 60.5q66 0 124 -17.5t101 -56.5t69 -102.5t26 -155.5v-641h-144z" />
<glyph unicode="i" horiz-adv-x="462" d="M303 0h-143v942h143v-942zM129 1286q0 41 29.5 74t72.5 33q41 0 74 -33t33 -74q0 -43 -33 -72.5t-74 -29.5q-43 0 -72.5 29.5t-29.5 72.5z" />
<glyph unicode="j" horiz-adv-x="462" d="M303 -6q0 -104 -19.5 -199.5t-58.5 -167t-98 -113.5t-137 -42q-33 0 -45 6l-33 119q12 -6 45 -7q70 0 111 40t61.5 99.5t25.5 131t5 135.5v946h143v-948zM129 1286q0 41 29.5 74t72.5 33q41 0 74 -33t33 -74q0 -43 -33 -72.5t-74 -29.5q-43 0 -72.5 29.5t-29.5 72.5z" />
<glyph unicode="k" horiz-adv-x="970" d="M545 610l401 -610h-164l-338 512l-141 -141v-371h-143v1516h143v-971l414 397h164z" />
<glyph unicode="l" horiz-adv-x="487" d="M315 0h-143v1516h143v-1516z" />
<glyph unicode="m" horiz-adv-x="1759" d="M813 0v623q0 125 -57.5 177t-143.5 52q-104 0 -188 -64.5t-121 -183.5v-604h-143v942h112l17 -176h8q27 86 112 146.5t220 60.5q123 0 206 -54.5t105 -152.5q20 41 51 78t74 65.5t98.5 46t124.5 17.5q63 0 121.5 -17.5t102.5 -56.5t71 -102.5t27 -155.5v-641h-144v623 q0 125 -57 177t-143 52q-104 0 -188.5 -64.5t-121.5 -183.5v-604h-143z" />
<glyph unicode="n" horiz-adv-x="1116" d="M821 0v623q0 123 -55 176t-141 53q-51 0 -101.5 -16.5t-93.5 -48t-75.5 -77.5t-51.5 -106v-604h-143v942h112l17 -176h8q27 86 119 146.5t229 60.5q66 0 124 -17.5t101 -56.5t69 -102.5t26 -155.5v-641h-144z" />
<glyph unicode="o" horiz-adv-x="1148" d="M573 973q125 0 215.5 -42t148.5 -112.5t86 -162t28 -191.5t-28 -189.5t-85 -156t-146.5 -105.5t-209.5 -39q-125 0 -216.5 41t-150.5 110t-88 159t-29 190t29 190.5t87 159t148 108.5t211 40zM580 84q82 0 142 30.5t100 83t58.5 121t18.5 144.5q0 78 -19.5 149.5 t-60.5 126t-103.5 87t-148.5 32.5q-84 0 -143 -30.5t-98 -82t-57.5 -120t-18.5 -144.5q0 -78 19.5 -149.5t59.5 -126.5t102.5 -88t148.5 -33z" />
<glyph unicode="p" horiz-adv-x="1177" d="M666 973q104 0 182 -41t129 -108.5t76.5 -156.5t25.5 -188q0 -102 -27.5 -193t-82 -160t-136 -110t-190.5 -41q-137 0 -225 59.5t-115 147.5v-714h-143v1474h112l17 -176h8q25 37 60.5 75t82.5 66.5t103.5 47t122.5 18.5zM629 852q-98 0 -183.5 -53.5t-142.5 -153.5v-301 q18 -59 53 -104t81 -78t98.5 -49.5t105.5 -16.5q72 0 125 29t89 80t54.5 118.5t18.5 145.5q0 74 -17.5 143.5t-54.5 122.5t-93 85t-134 32z" />
<glyph unicode="q" horiz-adv-x="1177" d="M506 973q68 0 126 -18.5t104 -47t83 -65.5t62 -76h8l16 176h113v-1474h-144v714q-27 -88 -114.5 -147.5t-224.5 -59.5q-109 0 -191 41t-136 110t-82 160t-28 191q0 98 26 188.5t77 158t127 108.5t178 41zM549 852q-78 0 -134.5 -32t-93 -85t-54 -122.5t-17.5 -143.5 q0 -78 18.5 -145.5t54 -118.5t89 -80t125.5 -29q53 0 105 16.5t98 49.5t81 78t53 104v301q-57 100 -142 153.5t-183 53.5z" />
<glyph unicode="r" horiz-adv-x="731" d="M668 791q-33 18 -66 29t-63 11q-41 0 -78 -22.5t-68 -61t-54.5 -90t-35.5 -106.5v-551h-143v942h112l17 -207h8q14 47 37.5 90t57.5 76t77 52.5t98 19.5q39 0 82 -13.5t62 -33.5z" />
<glyph unicode="s" horiz-adv-x="903" d="M436 858q-98 0 -142 -36t-44 -97q0 -20 6 -43t23.5 -42t47 -36.5t79.5 -28.5l145 -32q86 -18 138 -50t81 -69t38 -75t9 -70q0 -63 -25.5 -119t-73.5 -96.5t-118 -64.5t-156 -24q-109 0 -200.5 32t-147.5 71l37 133q74 -68 164 -98.5t162 -30.5q102 0 155.5 50t53.5 106 q0 18 -2 41.5t-16.5 48t-43 46t-82.5 34.5l-196 49q-68 16 -111 42.5t-67.5 58.5t-35 68t-10.5 72q0 125 93.5 200t248.5 75q80 0 172.5 -21.5t155.5 -62.5l-39 -123q-41 35 -122 63.5t-177 28.5z" />
<glyph unicode="t" horiz-adv-x="641" d="M203 846h-158v76l162 20l31 285h108v-285h221v-96h-221v-653q0 -66 19.5 -86.5t60.5 -20.5q47 0 84 14.5t65 34.5l29 -108q-35 -16 -91 -33t-124 -17q-66 0 -102.5 18.5t-55 49.5t-23.5 69t-5 74v658z" />
<glyph unicode="u" horiz-adv-x="1114" d="M293 942v-623q0 -63 15.5 -106t41 -68.5t61 -37t78.5 -11.5q51 0 101.5 15.5t93.5 46t76 76t51 104.5v604h143v-942h-112l-17 176h-8q-27 -86 -119 -143.5t-229 -57.5q-66 0 -124 16.5t-101 54.5t-68.5 100.5t-25.5 154.5v641h143z" />
<glyph unicode="v" horiz-adv-x="1067" d="M625 0h-183l-428 942h156l367 -807l366 807h150z" />
<glyph unicode="w" horiz-adv-x="1683" d="M1294 0h-194l-256 737l-271 -737h-194l-346 942h151l295 -803l295 803h152l276 -803l314 803h145z" />
<glyph unicode="x" horiz-adv-x="1058" d="M530 584l297 358h174l-387 -457l408 -485h-174l-322 383l-315 -383h-174l405 481l-385 461h174z" />
<glyph unicode="y" horiz-adv-x="1062" d="M606 -8q-31 -66 -74 -155t-102 -169t-139 -136t-180 -56q-16 0 -24.5 1t-18.5 5l-27 135q6 -2 14 -4t29 -2q41 0 77 8t70 33q72 51 130.5 149.5t105.5 229.5l-471 911h170l375 -784l336 784h161z" />
<glyph unicode="z" horiz-adv-x="854" d="M86 123l498 698h-478v121h644v-119l-502 -702h522v-121h-684v123z" />
<glyph unicode="{" horiz-adv-x="583" d="M496 1513q-45 -4 -72 -22t-40 -46t-17.5 -65t-4.5 -75q0 -18 1.5 -57.5t1.5 -82.5t1 -85t1 -68q0 -63 -9.5 -119.5t-31 -102t-58.5 -77t-94 -43.5q57 -12 94 -44t58.5 -77t31 -101.5t9.5 -119.5q0 -27 -1 -69t-1 -85t-1.5 -82t-1.5 -57q0 -41 4.5 -77t17.5 -63.5t40 -46 t72 -22.5l-4 -43q-88 0 -142.5 21.5t-83 59.5t-39 91t-10.5 119q0 23 1 61.5t1 82.5t1 87t1 72q0 37 -3 82t-16.5 84t-43 66.5t-84.5 29.5v61q55 2 84.5 31t44 70t16.5 86t2 82q0 31 -1 72.5t-1 84.5t-1 80t-1 60q0 63 10.5 117.5t39 92t82.5 59t143 21.5z" />
<glyph unicode="|" horiz-adv-x="491" d="M309 -233h-127v1806h127v-1806z" />
<glyph unicode="}" horiz-adv-x="583" d="M92 1556q88 0 142.5 -21.5t83 -59t39 -92t10.5 -117.5q0 -23 -1 -60t-1 -80t-1.5 -85t-1.5 -72q0 -37 2.5 -82t16.5 -86t44 -70t85 -31v-61q-55 -2 -85 -29.5t-43 -66.5t-16.5 -84t-3.5 -82q0 -29 1.5 -72t1.5 -87t1 -83t1 -61q0 -66 -10.5 -119t-39 -91t-83 -59.5 t-142.5 -21.5l-4 43q45 4 71.5 22.5t40 46t17.5 63.5t4 77q0 18 -1 57t-1 82t-1 85t-1 69q0 63 9.5 119.5t31 101.5t58 76.5t94.5 44.5q-57 12 -94 43.5t-58.5 77t-31 101.5t-9.5 120q0 27 1 68.5t1 84.5t1 82t1 58q0 39 -4 75.5t-17.5 64.5t-40 46t-71.5 22z" />
<glyph unicode="~" horiz-adv-x="1015" d="M864 590q0 -6 -10 -32t-31.5 -53.5t-55.5 -50t-83 -22.5q-23 0 -74 3t-111.5 6t-116.5 6.5t-89 3.5q-51 0 -71.5 -13.5t-41.5 -38.5l-26 15q0 14 12 40.5t36.5 53.5t59.5 45t78 18q27 0 71 -3t94 -6t103.5 -6t98.5 -3q35 0 70.5 8t62.5 45z" />
<glyph unicode="&#xa1;" horiz-adv-x="491" d="M152 879q0 39 27.5 66.5t68.5 27.5q37 0 66.5 -27.5t29.5 -66.5t-29.5 -69t-66.5 -30q-41 0 -68.5 30t-27.5 69zM293 643l53 -1089h-199l50 1089h96z" />
<glyph unicode="&#xa2;" horiz-adv-x="1036" d="M649 907q82 -6 157 -26.5t122 -51.5l-35 -120q-39 29 -105.5 51t-138.5 33v-703q72 10 142.5 42t117.5 79l29 -133q-47 -31 -123 -59.5t-166 -38.5v-261h-123v258q-109 8 -189.5 48.5t-133.5 105t-80 146t-27 172.5q0 86 24.5 165.5t77 142t134.5 102.5t194 50v273h123 v-275zM248 461q0 -68 17.5 -129.5t53 -110.5t88 -82t119.5 -45v701q-74 -10 -127 -40t-86.5 -75t-49 -101.5t-15.5 -117.5z" />
<glyph unicode="&#xa3;" horiz-adv-x="1161" d="M371 104q63 -4 127.5 -17t130 -28.5t131 -28t133.5 -12.5q51 0 93 9.5t89 29.5l-39 -149q-51 -27 -86 -34t-80 -7q-74 0 -145.5 21.5t-142 46t-143 46t-152.5 21.5q-20 0 -75.5 -9t-113.5 -56l-28 96q80 35 135 86t89 113.5t49 134t15 145.5v31h-200v106h192 q-10 94 -24.5 184.5t-14.5 161.5q0 100 35 170t91.5 114t126 63.5t136.5 19.5q94 0 180.5 -29.5t139.5 -70.5l-37 -136q-41 41 -119 71t-159 30q-61 0 -101.5 -17.5t-64 -48.5t-33.5 -72.5t-10 -89.5q0 -70 13 -158.5t19 -191.5h285v-106h-281q-4 -104 -43.5 -220 t-121.5 -212z" />
<glyph unicode="&#xa4;" horiz-adv-x="1189" d="M279 219q-90 111 -91 252q0 66 20.5 125t72.5 123l-168 164l61 61l164 -162q66 47 125 68.5t129 21.5q72 0 132 -21.5t120 -68.5l166 160l61 -59l-162 -164q47 -63 68.5 -122.5t21.5 -129.5q0 -68 -20.5 -127t-67.5 -121l164 -164l-63 -61l-166 162q-59 -45 -120.5 -69 t-129.5 -24q-66 0 -126 23t-128 70l-164 -162l-59 61zM594 774q-61 0 -116.5 -23.5t-97.5 -64.5t-65.5 -97.5t-23.5 -119.5t23.5 -118.5t65.5 -97.5t97 -65.5t119 -23.5q63 0 117.5 23.5t95.5 65.5t64.5 97.5t23.5 118.5t-23.5 118.5t-64.5 96.5t-96.5 65.5t-118.5 24.5z " />
<glyph unicode="&#xa5;" horiz-adv-x="1329" d="M590 522v25l-55 84h-297v106h227l-402 615h183l428 -650l413 650h179l-404 -615h234v-106h-303l-50 -76v-33h353v-106h-353v-416h-153v416h-352v106h352z" />
<glyph unicode="&#xa6;" horiz-adv-x="499" d="M313 561v-794h-127v794h127zM186 778v795h127v-795h-127z" />
<glyph unicode="&#xa7;" horiz-adv-x="901" d="M565 147q0 59 -34.5 106.5t-87 90.5t-114 86t-113.5 91t-87 106.5t-35 134.5q0 78 36 148.5t95 115.5q-25 55 -24 127q0 76 27.5 132t71.5 93t97.5 55.5t104.5 18.5q59 0 124.5 -22.5t110.5 -55.5l-51 -137q-37 41 -89 63.5t-103 22.5q-61 0 -109.5 -38t-48.5 -109 q0 -59 35 -106.5t87 -90.5t113.5 -86t113.5 -91t87 -106.5t35 -134.5q0 -78 -36 -149.5t-95 -114.5q10 -29 17 -60.5t7 -66.5q0 -76 -27.5 -132t-71.5 -93t-97 -55.5t-105 -18.5q-59 0 -124.5 22.5t-110.5 55.5l51 137q37 -41 89 -63.5t104 -22.5q61 0 109 37.5t48 109.5z M680 512q0 66 -45 117t-108.5 99t-133 98.5t-119.5 115.5q-29 -27 -41 -62.5t-12 -68.5q0 -68 44 -119t107.5 -98t133 -98.5t121.5 -116.5q29 27 41 62.5t12 70.5z" />
<glyph unicode="&#xa8;" horiz-adv-x="450" d="M0 1292q0 37 24.5 64.5t59.5 27.5t60.5 -27.5t25.5 -64.5q0 -39 -25.5 -64.5t-60.5 -25.5t-59.5 25.5t-24.5 64.5zM281 1292q0 37 24.5 64.5t59.5 27.5t60.5 -27.5t25.5 -64.5q0 -39 -26 -64.5t-60 -25.5q-35 0 -59.5 25.5t-24.5 64.5z" />
<glyph unicode="&#xa9;" horiz-adv-x="1484" d="M741 1339q129 0 243 -48t198 -132t133 -195.5t49 -238.5q0 -129 -49 -242.5t-134 -196.5t-201 -131.5t-249 -48.5q-125 0 -236.5 49.5t-194.5 133.5t-131 196.5t-48 239.5t48 238.5t133 195.5t197.5 132t241.5 48zM741 1255q-111 0 -207 -40.5t-166.5 -113.5t-110.5 -169 t-40 -207q0 -113 40 -210t110.5 -170t164 -114t201.5 -41q115 0 212 41t169 113t113 169t41 212q0 111 -41 207t-112 169t-167 113.5t-207 40.5zM958 905q-33 25 -95 43.5t-122 18.5q-57 0 -97 -18.5t-64.5 -49.5t-36 -73t-11.5 -89q0 -104 54.5 -178t163.5 -74 q59 0 119.5 23.5t101.5 62.5l18 -114q-41 -27 -110.5 -49.5t-147.5 -22.5q-84 0 -144.5 27.5t-100.5 73.5t-59 108.5t-19 134.5q0 70 18 131.5t58 107.5t103.5 72.5t153.5 26.5q68 0 134.5 -15.5t107.5 -41.5z" />
<glyph unicode="&#xaa;" horiz-adv-x="763" d="M528 756l-10 100h-8q-29 -47 -91.5 -82t-133.5 -35q-80 0 -121 47.5t-41 118.5q0 70 36 113t87 64.5t108.5 28.5t100.5 7h55v15q0 70 -43 103.5t-115 33.5q-53 0 -92 -13.5t-76 -35.5l-20 73q41 25 90 39.5t106 14.5q47 0 92.5 -11.5t80 -36t56 -63.5t21.5 -94v-387h-82z M311 823q49 0 106.5 34t92.5 93v99h-10q-49 0 -99.5 -4.5t-90.5 -17.5t-64.5 -41t-24.5 -75t22.5 -67.5t67.5 -20.5z" />
<glyph unicode="&#xab;" horiz-adv-x="991" d="M248 487l295 -362h-164l-273 362v11l275 362h162l-295 -362v-11zM580 487l294 -362h-163l-273 362v11l275 362h161l-294 -362v-11z" />
<glyph unicode="&#xac;" horiz-adv-x="1294" d="M1139 698v-458h-109v352h-874v106h983z" />
<glyph unicode="&#xad;" horiz-adv-x="997" d="M844 543l-4 -107h-688l4 107h688z" />
<glyph unicode="&#xae;" horiz-adv-x="1484" d="M741 1339q129 0 243 -48t198 -132t133 -195.5t49 -238.5q0 -129 -49 -242.5t-134 -196.5t-201 -131.5t-249 -48.5q-125 0 -236.5 49.5t-194.5 133.5t-131 196.5t-48 239.5t48 238.5t133 195.5t197.5 132t241.5 48zM741 1255q-111 0 -207 -40.5t-166.5 -113.5t-110.5 -169 t-40 -207q0 -113 40 -210t110.5 -170t164 -114t201.5 -41q115 0 212 41t169 113t113 169t41 212q0 111 -41 207t-112 169t-167 113.5t-207 40.5zM537 1085q35 2 86 3.5t88 1.5q55 0 102 -9.5t81 -31t52.5 -58.5t18.5 -92q0 -63 -43 -113.5t-119 -70.5l207 -303h-113 l-203 297h-59v-297h-98v673zM715 1012q-23 0 -42.5 -1t-37.5 -1v-228q18 -2 38.5 -2h43.5q68 0 106.5 33t38.5 94q0 47 -33.5 76t-113.5 29z" />
<glyph unicode="&#xb0;" horiz-adv-x="733" d="M365 1348q125 0 188 -72t63 -170q0 -45 -15 -86t-46 -73t-79 -50t-111 -18q-66 0 -113 19.5t-77 52t-44 74.5t-14 87q0 49 16.5 91t48 75t78 51.5t105.5 18.5zM365 956q78 0 113.5 42t35.5 108t-37 112t-115 46q-80 0 -114.5 -44t-34.5 -106q0 -66 38 -112t114 -46z" />
<glyph unicode="&#xb1;" horiz-adv-x="989" d="M547 719h274v-109h-274v-235h-107v235h-272v109h272v213h107v-213zM821 252v-109h-653v109h653z" />
<glyph unicode="&#xb2;" horiz-adv-x="768" d="M164 1262q47 43 104.5 71.5t116.5 28.5q109 0 166 -55.5t57 -143.5q0 -68 -31.5 -126t-82 -113.5t-113 -109.5t-123.5 -116h358v-86h-483v86q49 61 112.5 117.5t120 113t96.5 114t40 118.5q0 18 -5 39t-18.5 38t-36 29.5t-59.5 12.5q-53 0 -107.5 -31.5t-89.5 -77.5z" />
<glyph unicode="&#xb3;" horiz-adv-x="731" d="M164 1300q41 27 85 44.5t93 17.5q111 0 170 -49t59 -144q0 -45 -34.5 -82.5t-81.5 -60.5q72 -23 113.5 -67t41.5 -117q0 -47 -16 -90t-52 -77t-90.5 -53.5t-129.5 -19.5q-72 0 -116 20.5t-91 57.5l24 82q43 -35 80 -56.5t98 -21.5q100 0 145.5 45t45.5 123q0 61 -40 97 t-153 36h-24v70h31q76 0 111.5 32.5t35.5 92.5q0 45 -22.5 72.5t-96.5 27.5q-55 0 -94 -17.5t-70 -41.5z" />
<glyph unicode="&#xb4;" horiz-adv-x="448" d="M12 1130l-12 41l6 15l369 207q35 -2 54.5 -22.5t19.5 -49.5q0 -20 -9 -39l-413 -158z" />
<glyph unicode="&#xb5;" horiz-adv-x="1181" d="M381 942v-623q0 -63 15.5 -106t41 -68.5t61.5 -37t79 -11.5q51 0 101 15.5t93 46t76 76t51 104.5v604h143v-942h-112l-17 176h-8q-27 -86 -119 -143.5t-229 -57.5q-66 0 -125 16.5t-102 55.5l-6 -27q-35 -152 -111 -307l-131 60q37 70 65.5 132t48 125.5t31 129 t11.5 141.5v641h143z" />
<glyph unicode="&#xb6;" horiz-adv-x="1091" d="M584 508h-43q-121 0 -209 33.5t-145.5 91t-86 133.5t-28.5 162q0 106 34.5 187t99 136.5t156 83t201.5 27.5q72 0 155 -3t171 -7v-1528h-92v1403h-111v-1403h-102v684z" />
<glyph unicode="&#xb7;" horiz-adv-x="495" d="M152 498q0 39 27.5 68.5t68.5 29.5q37 0 66.5 -29.5t29.5 -68.5t-29.5 -67t-66.5 -28q-41 0 -68.5 28t-27.5 67z" />
<glyph unicode="&#xb8;" horiz-adv-x="413" d="M0 -365l27 48h14q25 -10 63.5 -17.5t77.5 -7.5q45 0 78 17.5t33 64.5q0 55 -32 74.5t-75 19.5q-25 0 -50 -4t-48 -10l-18 22l104 158h70l-62 -104q35 8 70 8q72 0 117 -42t45 -106q0 -35 -17.5 -65.5t-47.5 -54t-70.5 -38t-90.5 -14.5q-49 0 -97 11.5t-89 27.5z" />
<glyph unicode="&#xb9;" horiz-adv-x="507" d="M342 612h-111v586l-116 -57l-27 86l254 135v-750z" />
<glyph unicode="&#xba;" horiz-adv-x="798" d="M397 1348q70 0 123 -25t90 -67t55.5 -97t18.5 -115q0 -55 -17.5 -107t-53 -92t-89 -64.5t-125.5 -24.5q-74 0 -127 24.5t-87.5 66.5t-52 95t-17.5 109q0 61 19.5 114.5t56 94t88.5 64.5t118 24zM399 840q96 0 137.5 57t41.5 147q0 88 -44.5 150.5t-140.5 62.5t-135 -58 t-39 -146q0 -90 44 -151.5t136 -61.5z" />
<glyph unicode="&#xbb;" horiz-adv-x="991" d="M743 498l-294 362h161l275 -362v-11l-273 -362h-163l294 362v11zM412 498l-295 362h162l274 -362v-11l-272 -362h-164l295 362v11z" />
<glyph unicode="&#xbc;" horiz-adv-x="1456" d="M1368 225h-74v-227h-92v227h-307v86l301 437h98v-437h74v-86zM1202 311v316l-203 -316h203zM295 -49h-133l948 1464h133zM326 612h-111v586l-117 -57l-26 86l254 135v-750z" />
<glyph unicode="&#xbd;" horiz-adv-x="1464" d="M330 612h-111v586l-117 -57l-26 86l254 135v-750zM258 -49h-133l948 1464h133zM920 645q47 43 104 71.5t117 28.5q109 0 166 -55t57 -143q0 -68 -32 -126.5t-82 -113.5t-112.5 -109.5t-123.5 -115.5h358v-86h-483v86q49 61 112.5 117.5t120 113t96 113.5t39.5 119 q0 18 -5 38.5t-18 38t-35.5 30t-59.5 12.5q-53 0 -107.5 -32t-89.5 -77z" />
<glyph unicode="&#xbe;" horiz-adv-x="1536" d="M125 1298q41 27 85 44.5t93 17.5q111 0 170 -49t59 -144q0 -45 -34.5 -82.5t-81.5 -60.5q72 -23 113.5 -67t41.5 -117q0 -47 -16 -90t-52 -77t-90.5 -53.5t-129.5 -19.5q-72 0 -116 20.5t-91 57.5l24 82q43 -35 80 -56.5t99 -21.5q100 0 145 45t45 123q0 61 -40 97 t-153 36h-24v70h31q76 0 111.5 32.5t35.5 92.5q0 45 -22.5 72.5t-96.5 27.5q-55 0 -94 -17.5t-70 -41.5zM1448 225h-74v-227h-92v227h-307v86l301 437h98v-437h74v-86zM1282 311v316l-203 -316h203zM403 -49h-133l949 1464h133z" />
<glyph unicode="&#xbf;" horiz-adv-x="823" d="M549 877q0 -41 -27.5 -69t-66.5 -28t-69 28t-30 69q0 39 30 67.5t69 28.5t66.5 -28.5t27.5 -67.5zM748 -354q-55 -43 -137.5 -72t-159.5 -29q-82 0 -148.5 24.5t-113 68t-71 104.5t-24.5 135q0 61 21.5 115.5t55.5 109t72 109.5t71.5 119.5t56 140.5t22.5 170h131 q0 -102 -20.5 -182t-52 -144.5t-68.5 -118t-68.5 -103.5t-52 -103t-20.5 -115q0 -82 52 -139.5t159 -57.5q33 0 69.5 8.5t71.5 21.5t64.5 31.5t52.5 41.5z" />
<glyph unicode="&#xc0;" d="M1331 0h-174l-199 455h-604l-180 -455h-164l541 1352h186zM412 598h483l-254 582zM858 1470l-412 158q-8 18 -8 39q0 29 18.5 48.5t53.5 21.5l371 -205l4 -14l-11 -41z" />
<glyph unicode="&#xc1;" d="M1331 0h-174l-199 455h-604l-180 -455h-164l541 1352h186zM412 598h483l-254 582zM451 1477l-13 41l6 14l369 205q35 -2 53.5 -21.5t18.5 -48.5q0 -10 -1 -19.5t-5 -19.5l-414 -158z" />
<glyph unicode="&#xc2;" d="M1331 0h-174l-199 455h-604l-180 -455h-164l541 1352h186zM412 598h483l-254 582zM676 1724l225 -202l6 -15l-12 -41l-14 -6l-213 127l-213 -127l-15 6l-12 41l6 15l225 202h17z" />
<glyph unicode="&#xc3;" d="M1331 0h-174l-199 455h-604l-180 -455h-164l541 1352h186zM412 598h483l-254 582zM981 1704q-6 -29 -19.5 -56.5t-35 -50t-52 -37t-73.5 -14.5q-82 0 -167 14.5t-151 14.5q-51 0 -71.5 -13.5t-40.5 -37.5l-27 16q8 27 22.5 55.5t36 50t53 36t74.5 14.5q51 0 89 -4 t71 -10.5t63.5 -10.5t69.5 -4q35 0 70 8t63 45z" />
<glyph unicode="&#xc4;" d="M1331 0h-174l-199 455h-604l-180 -455h-164l541 1352h186zM412 598h483l-254 582zM418 1626q0 37 24.5 64.5t59.5 27.5t60.5 -27.5t25.5 -64.5q0 -39 -25.5 -64.5t-60.5 -25.5t-59.5 25.5t-24.5 64.5zM739 1626q0 37 24.5 64.5t59.5 27.5q33 0 58.5 -27.5t25.5 -64.5 q0 -39 -25.5 -64.5t-58.5 -25.5q-35 0 -59.5 25.5t-24.5 64.5z" />
<glyph unicode="&#xc5;" d="M643 1602q80 0 128 -49.5t48 -112.5q0 -39 -19.5 -70t-49.5 -49l581 -1321h-174l-199 455h-604l-180 -455h-164l529 1321q-35 18 -54.5 51t-19.5 72q0 63 49 110.5t129 47.5zM412 598h483l-254 582zM645 1339q41 0 66.5 31t25.5 70q0 41 -27.5 70.5t-68.5 29.5 q-45 0 -70.5 -26.5t-25.5 -67.5t29.5 -74t70.5 -33z" />
<glyph unicode="&#xc6;" horiz-adv-x="1554" d="M1473 0h-680v455h-400l-239 -455h-168l721 1352h725v-144h-486v-420h348v-143h-348v-502h527v-143zM793 598v606l-324 -606h324z" />
<glyph unicode="&#xc7;" d="M561 -365l27 48h14q25 -10 62.5 -17.5t78.5 -7.5q45 0 77 17.5t32 64.5q0 55 -30.5 74.5t-73.5 19.5q-25 0 -51.5 -4t-49.5 -10l-16 22l88 135q-154 8 -267.5 66.5t-188.5 152t-110.5 213t-35.5 253.5q0 145 43 272t128 222t211 150.5t294 55.5q111 0 221 -23.5 t190 -64.5l-43 -148q-66 43 -162 72t-219 29q-137 0 -231 -40t-152.5 -111.5t-84 -173t-25.5 -224.5q0 -281 122.5 -424t366.5 -143q129 0 237.5 36.5t174.5 90.5l41 -138q-78 -47 -188.5 -83.5t-247.5 -41.5l-50 -79q18 4 36 6t32 2q72 0 117 -42t45 -106 q0 -35 -16.5 -65.5t-46 -54t-70.5 -38t-90 -14.5t-98.5 11.5t-88.5 27.5z" />
<glyph unicode="&#xc8;" horiz-adv-x="1069" d="M985 0h-782v1352h741v-144h-588v-420h451v-143h-451v-502h629v-143zM764 1470l-412 158q-8 18 -8 39q0 29 18.5 48.5t53.5 21.5l370 -205l7 -14l-13 -41z" />
<glyph unicode="&#xc9;" horiz-adv-x="1069" d="M985 0h-782v1352h741v-144h-588v-420h451v-143h-451v-502h629v-143zM377 1477l-12 41l6 14l370 205q35 -2 53.5 -21.5t18.5 -48.5q0 -20 -8 -39l-414 -158z" />
<glyph unicode="&#xca;" horiz-adv-x="1069" d="M985 0h-782v1352h741v-144h-588v-420h451v-143h-451v-502h629v-143zM596 1724l225 -202l6 -15l-12 -41l-14 -6l-213 127l-213 -127l-15 6l-12 41l6 15l226 202h16z" />
<glyph unicode="&#xcb;" horiz-adv-x="1069" d="M985 0h-782v1352h741v-144h-588v-420h451v-143h-451v-502h629v-143zM645 1626q0 37 24.5 64.5t59.5 27.5t60.5 -27.5t25.5 -64.5q0 -39 -25.5 -64.5t-60.5 -25.5t-59.5 25.5t-24.5 64.5zM324 1626q0 37 24.5 64.5t59.5 27.5t60.5 -27.5t25.5 -64.5q0 -39 -26 -64.5 t-60 -25.5q-35 0 -59.5 25.5t-24.5 64.5z" />
<glyph unicode="&#xcc;" horiz-adv-x="559" d="M453 1470l-414 158q-8 18 -8 39q0 29 18.5 48.5t52.5 21.5l371 -205l6 -14l-12 -41zM356 0h-153v1352h153v-1352z" />
<glyph unicode="&#xcd;" horiz-adv-x="559" d="M84 1477l-12 41l6 14l371 205q35 -2 53 -21.5t18 -48.5q0 -20 -8 -39l-412 -158zM356 0h-153v1352h153v-1352z" />
<glyph unicode="&#xce;" horiz-adv-x="559" d="M283 1724l227 -202l6 -15l-12 -41l-17 -6l-211 127l-213 -127l-16 6l-10 41l6 15l225 202h15zM356 0h-153v1352h153v-1352z" />
<glyph unicode="&#xcf;" horiz-adv-x="559" d="M39 1626q0 37 24.5 64.5t59.5 27.5t60.5 -27.5t25.5 -64.5q0 -39 -25.5 -64.5t-60.5 -25.5t-59.5 25.5t-24.5 64.5zM360 1626q0 37 25 64.5t59 27.5q35 0 60.5 -27.5t25.5 -64.5q0 -39 -25.5 -64.5t-60.5 -25.5t-59.5 25.5t-24.5 64.5zM356 0h-153v1352h153v-1352z" />
<glyph unicode="&#xd0;" horiz-adv-x="1445" d="M29 668v90h178v594h10q98 4 213 7t223 3q145 0 265 -41t204 -113q109 -98 158 -239.5t49 -306.5q0 -139 -39 -263.5t-119.5 -218.5t-203.5 -149.5t-291 -55.5q-145 0 -261 7.5t-208 17.5v668h-178zM719 758v-90h-359v-545q129 -12 310 -12q244 0 366.5 143t122.5 424 q0 123 -25.5 224.5t-84 173t-152.5 111.5t-231 40q-82 0 -161 -1t-145 -5v-463h359z" />
<glyph unicode="&#xd1;" horiz-adv-x="1441" d="M1085 240v1112h154v-1352h-174l-709 1110v-1110h-153v1352h174zM1012 1704q-6 -29 -19.5 -56.5t-35 -50t-52.5 -37t-74 -14.5q-82 0 -166.5 14.5t-150.5 14.5q-51 0 -71.5 -13.5t-41.5 -37.5l-26 16q8 27 22.5 55.5t36 50t53 36t74.5 14.5q51 0 89 -4t71 -10.5 t63.5 -10.5t69.5 -4q35 0 69.5 8t63.5 45z" />
<glyph unicode="&#xd2;" horiz-adv-x="1548" d="M911 1470l-411 158q-8 18 -8 39q0 29 18 48.5t53 21.5l369 -205l6 -14l-10 -41zM774 1362q160 0 283 -55.5t207 -150.5t127 -220t43 -262q0 -135 -42 -261t-127 -223.5t-211 -156t-294 -58.5q-164 0 -285 55.5t-200.5 149.5t-119.5 218t-40 261q0 145 44 273.5t128 223.5 t206.5 150.5t280.5 55.5zM764 111q133 0 228 43t155.5 118.5t89.5 177t29 218.5q0 125 -30 227t-90.5 176t-154.5 115t-223 41q-131 0 -223 -40t-149.5 -113t-84 -173t-26.5 -221q0 -283 123 -426t356 -143z" />
<glyph unicode="&#xd3;" horiz-adv-x="1548" d="M639 1477l-10 41l6 14l369 205q35 -2 53 -21.5t18 -48.5q0 -18 -6 -39l-414 -158zM774 1362q160 0 283 -55.5t207 -150.5t127 -220t43 -262q0 -135 -42 -261t-127 -223.5t-211 -156t-294 -58.5q-164 0 -285 55.5t-200.5 149.5t-119.5 218t-40 261q0 145 44 273.5 t128 223.5t206.5 150.5t280.5 55.5zM764 111q133 0 228 43t155.5 118.5t89.5 177t29 218.5q0 125 -30 227t-90.5 176t-154.5 115t-223 41q-131 0 -223 -40t-149.5 -113t-84 -173t-26.5 -221q0 -283 123 -426t356 -143z" />
<glyph unicode="&#xd4;" horiz-adv-x="1548" d="M803 1724l225 -202l6 -15l-12 -41l-14 -6l-213 127l-213 -127l-15 6l-12 41l6 15l225 202h17zM774 1362q160 0 283 -55.5t207 -150.5t127 -220t43 -262q0 -135 -42 -261t-127 -223.5t-211 -156t-294 -58.5q-164 0 -285 55.5t-200.5 149.5t-119.5 218t-40 261 q0 145 44 273.5t128 223.5t206.5 150.5t280.5 55.5zM764 111q133 0 228 43t155.5 118.5t89.5 177t29 218.5q0 125 -30 227t-90.5 176t-154.5 115t-223 41q-131 0 -223 -40t-149.5 -113t-84 -173t-26.5 -221q0 -283 123 -426t356 -143z" />
<glyph unicode="&#xd5;" horiz-adv-x="1548" d="M1096 1704q-6 -29 -19.5 -56.5t-35 -50t-52.5 -37t-74 -14.5q-82 0 -166.5 14.5t-150.5 14.5q-51 0 -71.5 -13.5t-41.5 -37.5l-26 16q8 27 22.5 55.5t36 50t53 36t74.5 14.5q51 0 89 -4t71 -10.5t63.5 -10.5t69.5 -4q35 0 69.5 8t63.5 45zM774 1362q160 0 283 -55.5 t207 -150.5t127 -220t43 -262q0 -135 -42 -261t-127 -223.5t-211 -156t-294 -58.5q-164 0 -285 55.5t-200.5 149.5t-119.5 218t-40 261q0 145 44 273.5t128 223.5t206.5 150.5t280.5 55.5zM764 111q133 0 228 43t155.5 118.5t89.5 177t29 218.5q0 125 -30 227t-90.5 176 t-154.5 115t-223 41q-131 0 -223 -40t-149.5 -113t-84 -173t-26.5 -221q0 -283 123 -426t356 -143z" />
<glyph unicode="&#xd6;" horiz-adv-x="1548" d="M530 1626q0 37 25 64.5t59 27.5q35 0 60.5 -27.5t25.5 -64.5q0 -39 -25.5 -64.5t-60.5 -25.5t-59.5 25.5t-24.5 64.5zM852 1626q0 37 24.5 64.5t59.5 27.5t60.5 -27.5t25.5 -64.5q0 -39 -25.5 -64.5t-60.5 -25.5t-59.5 25.5t-24.5 64.5zM774 1362q160 0 283 -55.5 t207 -150.5t127 -220t43 -262q0 -135 -42 -261t-127 -223.5t-211 -156t-294 -58.5q-164 0 -285 55.5t-200.5 149.5t-119.5 218t-40 261q0 145 44 273.5t128 223.5t206.5 150.5t280.5 55.5zM764 111q133 0 228 43t155.5 118.5t89.5 177t29 218.5q0 125 -30 227t-90.5 176 t-154.5 115t-223 41q-131 0 -223 -40t-149.5 -113t-84 -173t-26.5 -221q0 -283 123 -426t356 -143z" />
<glyph unicode="&#xd7;" horiz-adv-x="937" d="M467 414l-246 -248l-76 76l246 247l-246 246l76 76l246 -246l250 248l76 -76l-250 -248l250 -249l-76 -76z" />
<glyph unicode="&#xd8;" horiz-adv-x="1548" d="M266 190q-76 94 -112.5 214t-36.5 255q0 145 44 273.5t128 223.5t206.5 150.5t280.5 55.5q115 0 210 -28.5t171 -82.5l133 156l105 -80l-138 -164q88 -96 133.5 -222t45.5 -267q0 -135 -42 -261t-127 -223.5t-211 -156t-294 -58.5q-125 0 -224.5 32t-177.5 91l-143 -170 l-98 88zM766 111q133 0 228.5 43t155.5 118.5t89 177t29 218.5q0 238 -105 385l-708 -844q116 -98 311 -98zM287 680q0 -229 82 -367l700 832q-117 82 -299 82q-131 0 -223 -40t-149.5 -113t-84 -173t-26.5 -221z" />
<glyph unicode="&#xd9;" horiz-adv-x="1409" d="M872 1470l-411 158q-8 18 -8 39q0 29 18 48.5t53 21.5l371 -205l4 -14l-10 -41zM342 524q0 -221 97.5 -317t269.5 -96t270 96t98 317v828h144v-897q0 -100 -31 -187.5t-94.5 -152t-159.5 -101.5t-227 -37q-143 0 -242.5 37t-161 101.5t-89.5 151.5t-28 188v897h154v-828z " />
<glyph unicode="&#xda;" horiz-adv-x="1409" d="M522 1477l-12 41l6 14l371 205q35 -2 53 -21.5t18 -48.5q0 -20 -8 -39l-411 -158zM342 524q0 -221 97.5 -317t269.5 -96t270 96t98 317v828h144v-897q0 -100 -31 -187.5t-94.5 -152t-159.5 -101.5t-227 -37q-143 0 -242.5 37t-161 101.5t-89.5 151.5t-28 188v897h154 v-828z" />
<glyph unicode="&#xdb;" horiz-adv-x="1409" d="M705 1724l227 -202l4 -15l-10 -41l-17 -6l-211 127l-213 -127l-16 6l-10 41l4 15l227 202h15zM342 524q0 -221 97.5 -317t269.5 -96t270 96t98 317v828h144v-897q0 -100 -31 -187.5t-94.5 -152t-159.5 -101.5t-227 -37q-143 0 -242.5 37t-161 101.5t-89.5 151.5t-28 188 v897h154v-828z" />
<glyph unicode="&#xdc;" horiz-adv-x="1409" d="M483 1626q0 37 24.5 64.5t59.5 27.5t60.5 -27.5t25.5 -64.5q0 -39 -25.5 -64.5t-60.5 -25.5t-59.5 25.5t-24.5 64.5zM805 1626q0 37 24.5 64.5t59.5 27.5t60.5 -27.5t25.5 -64.5q0 -39 -25.5 -64.5t-60.5 -25.5t-59.5 25.5t-24.5 64.5zM342 524q0 -221 97.5 -317 t269.5 -96t270 96t98 317v828h144v-897q0 -100 -31 -187.5t-94.5 -152t-159.5 -101.5t-227 -37q-143 0 -242.5 37t-161 101.5t-89.5 151.5t-28 188v897h154v-828z" />
<glyph unicode="&#xdd;" horiz-adv-x="1159" d="M451 1477l-11 41l6 14l369 205q35 -2 53.5 -21.5t18.5 -48.5q0 -18 -6 -39l-414 -158zM-23 1352h183l428 -650l413 650h179l-523 -797v-555h-153v547z" />
<glyph unicode="&#xde;" horiz-adv-x="1062" d="M346 1092q41 2 82 3t68 1q221 0 351 -105.5t130 -304.5q0 -84 -25.5 -156.5t-82 -128t-146.5 -87t-217 -31.5q-29 0 -74 1t-86 5v-289h-143v1352h143v-260zM500 961q-27 0 -71 -1.5t-83 -3.5v-530q39 -4 83 -6t69 -2q160 0 234.5 68.5t74.5 211.5q0 61 -15.5 109.5 t-51 82.5t-94 52.5t-146.5 18.5z" />
<glyph unicode="&#xdf;" horiz-adv-x="1114" d="M303 0h-143v995q0 115 23.5 209t71.5 162t118.5 104.5t165.5 36.5q76 0 137 -23.5t104 -61.5t66.5 -88t23.5 -103q0 -70 -32.5 -128.5t-71.5 -110.5t-71.5 -100t-32.5 -93q0 -43 28.5 -75t71.5 -62.5t92 -63.5t92 -77t72 -101.5t29 -136.5q0 -84 -32 -142.5t-78 -95.5 t-100.5 -53.5t-99.5 -16.5q-68 0 -125 28t-94 63l41 145q31 -61 84 -95t109 -34q59 0 101 44t42 134q0 72 -27.5 121t-68.5 85t-88 65.5t-88 63.5t-69 78t-28 111q0 72 30 127.5t65.5 104.5t65.5 98t30 107q0 66 -46 113.5t-141 47.5q-74 0 -118.5 -32.5t-69.5 -86t-32 -124 t-7 -144.5v-995z" />
<glyph unicode="&#xe0;" horiz-adv-x="1019" d="M635 1124l-414 158q-6 20 -6 39q0 29 18.5 49.5t53.5 22.5l368 -207l7 -15l-11 -41zM758 0l-17 168h-8q-25 -39 -65.5 -74t-91 -61.5t-108.5 -42t-116 -15.5q-135 0 -202.5 79t-67.5 198q0 117 59.5 186.5t145.5 104.5t181 45t167 10h92v25q0 78 -21.5 118.5t-62.5 69.5 q-35 23 -75 32t-105 9q-86 0 -151.5 -22.5t-127.5 -59.5l-32 123q137 80 327 80q76 0 143.5 -13.5t118.5 -46.5q59 -37 94 -104.5t35 -167.5v-641h-112zM395 96q84 0 178.5 53.5t153.5 153.5v191h-18q-84 0 -168 -6.5t-153 -31t-112 -70.5t-43 -126t44 -122t118 -42z" />
<glyph unicode="&#xe1;" horiz-adv-x="1019" d="M379 1130l-12 41l6 15l368 207q35 -2 54.5 -22.5t19.5 -49.5q0 -20 -8 -39l-414 -158zM758 0l-17 168h-8q-25 -39 -65.5 -74t-91 -61.5t-108.5 -42t-116 -15.5q-135 0 -202.5 79t-67.5 198q0 117 59.5 186.5t145.5 104.5t181 45t167 10h92v25q0 78 -21.5 118.5 t-62.5 69.5q-35 23 -75 32t-105 9q-86 0 -151.5 -22.5t-127.5 -59.5l-32 123q137 80 327 80q76 0 143.5 -13.5t118.5 -46.5q59 -37 94 -104.5t35 -167.5v-641h-112zM395 96q84 0 178.5 53.5t153.5 153.5v191h-18q-84 0 -168 -6.5t-153 -31t-112 -70.5t-43 -126t44 -122 t118 -42z" />
<glyph unicode="&#xe2;" horiz-adv-x="1019" d="M500 1378l225 -202l6 -15l-12 -39l-14 -6l-213 125l-211 -125l-17 6l-12 39l6 15l225 202h17zM758 0l-17 168h-8q-25 -39 -65.5 -74t-91 -61.5t-108.5 -42t-116 -15.5q-135 0 -202.5 79t-67.5 198q0 117 59.5 186.5t145.5 104.5t181 45t167 10h92v25q0 78 -21.5 118.5 t-62.5 69.5q-35 23 -75 32t-105 9q-86 0 -151.5 -22.5t-127.5 -59.5l-32 123q137 80 327 80q76 0 143.5 -13.5t118.5 -46.5q59 -37 94 -104.5t35 -167.5v-641h-112zM395 96q84 0 178.5 53.5t153.5 153.5v191h-18q-84 0 -168 -6.5t-153 -31t-112 -70.5t-43 -126t44 -122 t118 -42z" />
<glyph unicode="&#xe3;" horiz-adv-x="1019" d="M831 1368q0 -6 -10 -31.5t-31.5 -53.5t-55.5 -50.5t-83 -22.5q-23 0 -64.5 3.5t-89.5 6.5t-95.5 6t-79.5 3q-51 0 -72 -13.5t-41 -37.5l-27 16q0 14 12.5 41t37 52.5t59.5 44t78 18.5q53 0 134 -9.5t171 -9.5q35 0 69.5 8.5t63.5 44.5zM758 0l-17 168h-8 q-25 -39 -65.5 -74t-91 -61.5t-108.5 -42t-116 -15.5q-135 0 -202.5 79t-67.5 198q0 117 59.5 186.5t145.5 104.5t181 45t167 10h92v25q0 78 -21.5 118.5t-62.5 69.5q-35 23 -75 32t-105 9q-86 0 -151.5 -22.5t-127.5 -59.5l-32 123q137 80 327 80q76 0 143.5 -13.5 t118.5 -46.5q59 -37 94 -104.5t35 -167.5v-641h-112zM395 96q84 0 178.5 53.5t153.5 153.5v191h-18q-84 0 -168 -6.5t-153 -31t-112 -70.5t-43 -126t44 -122t118 -42z" />
<glyph unicode="&#xe4;" horiz-adv-x="1019" d="M266 1282q0 37 24.5 64.5t59.5 27.5q33 0 58.5 -27.5t25.5 -64.5q0 -39 -25.5 -64.5t-58.5 -25.5q-35 0 -59.5 25.5t-24.5 64.5zM588 1282q0 37 23.5 64.5t58.5 27.5t60.5 -27.5t25.5 -64.5q0 -39 -25.5 -64.5t-60.5 -25.5t-58.5 25.5t-23.5 64.5zM758 0l-17 168h-8 q-25 -39 -65.5 -74t-91 -61.5t-108.5 -42t-116 -15.5q-135 0 -202.5 79t-67.5 198q0 117 59.5 186.5t145.5 104.5t181 45t167 10h92v25q0 78 -21.5 118.5t-62.5 69.5q-35 23 -75 32t-105 9q-86 0 -151.5 -22.5t-127.5 -59.5l-32 123q137 80 327 80q76 0 143.5 -13.5 t118.5 -46.5q59 -37 94 -104.5t35 -167.5v-641h-112zM395 96q84 0 178.5 53.5t153.5 153.5v191h-18q-84 0 -168 -6.5t-153 -31t-112 -70.5t-43 -126t44 -122t118 -42z" />
<glyph unicode="&#xe5;" horiz-adv-x="1019" d="M520 1399q80 0 125 -48t45 -106q0 -53 -43 -98t-125 -45q-43 0 -74.5 13t-53 34.5t-32 47.5t-10.5 52q0 57 45 103.5t123 46.5zM522 1151q41 0 65.5 29.5t24.5 64.5q0 37 -25.5 71t-68.5 34t-66.5 -32t-23.5 -67q0 -37 26.5 -68.5t67.5 -31.5zM758 0l-17 168h-8 q-25 -39 -65.5 -74t-91 -61.5t-108.5 -42t-116 -15.5q-135 0 -202.5 79t-67.5 198q0 117 59.5 186.5t145.5 104.5t181 45t167 10h92v25q0 78 -21.5 118.5t-62.5 69.5q-35 23 -75 32t-105 9q-86 0 -151.5 -22.5t-127.5 -59.5l-32 123q137 80 327 80q76 0 143.5 -13.5 t118.5 -46.5q59 -37 94 -104.5t35 -167.5v-641h-112zM395 96q84 0 178.5 53.5t153.5 153.5v191h-18q-84 0 -168 -6.5t-153 -31t-112 -70.5t-43 -126t44 -122t118 -42z" />
<glyph unicode="&#xe6;" horiz-adv-x="1677" d="M834 811q59 70 155 116t213 46q180 0 278.5 -91t98.5 -257q0 -35 -4 -71t-14 -52h-691v-37q2 -76 22.5 -145.5t62.5 -122t103.5 -83t145.5 -30.5q98 0 185.5 35t144.5 76l27 -109q-27 -16 -66 -35.5t-86 -36t-103.5 -28t-117.5 -11.5q-137 0 -235.5 56.5t-157.5 148.5h-9 q-82 -113 -199.5 -159t-234.5 -46q-135 0 -202.5 79t-67.5 198q0 117 59.5 186.5t145.5 104.5t181 45t167 10h92v25q0 78 -21.5 118.5t-62.5 69.5q-35 23 -75 32t-105 9q-86 0 -151.5 -22.5t-127.5 -59.5l-32 123q137 80 327 80q76 0 143.5 -13.5t118.5 -46.5 q25 -16 49.5 -44.5t34.5 -57.5h9zM395 96q84 0 178.5 53.5t153.5 153.5v191h-18q-84 0 -168 -6.5t-153 -31t-112 -70.5t-43 -126t44 -122t118 -42zM1196 858q-135 0 -210 -70.5t-101 -177.5h559q2 10 2 18.5v18.5q0 51 -20.5 91t-55.5 66.5t-80 40t-94 13.5z" />
<glyph unicode="&#xe7;" horiz-adv-x="1024" d="M897 770q-47 35 -135 62.5t-176 27.5q-90 0 -152.5 -30.5t-103.5 -82t-59.5 -118t-18.5 -137.5q0 -80 22.5 -154t66.5 -129t108.5 -88t150.5 -33q82 0 167 32t142 85l33 -127q-53 -35 -146.5 -66.5t-199.5 -36.5l-49 -79q18 4 35.5 6t31.5 2q72 0 117 -42t45 -106 q0 -35 -16.5 -65.5t-46 -54t-70.5 -38t-90 -14.5t-98 11.5t-88 27.5l-2 12l26 48h15q25 -10 62.5 -17.5t78.5 -7.5q45 0 76.5 17.5t31.5 64.5q0 55 -30.5 74.5t-73.5 19.5q-25 0 -51.5 -4t-48.5 -10l-17 22l88 135q-106 8 -185 52.5t-131 112t-79 154.5t-27 183 q0 98 28 187.5t87 158t151.5 108.5t221.5 40q98 0 192 -22.5t152 -59.5z" />
<glyph unicode="&#xe8;" horiz-adv-x="1056" d="M582 973q180 0 278 -91t98 -257q0 -35 -4 -71t-14 -52h-690v-21q0 -78 20.5 -149.5t61.5 -126.5t103.5 -88t148.5 -33q98 0 185 35t144 76l27 -109q-27 -16 -65.5 -35.5t-86 -36t-103.5 -28t-118 -11.5q-115 0 -203 40t-147 109t-90 159t-31 188q0 100 32 191.5t93.5 161 t152.5 109.5t208 40zM575 858q-135 0 -209.5 -70.5t-101.5 -177.5h559q2 10 2 18.5v18.5q0 51 -20.5 91t-55 66.5t-80 40t-94.5 13.5zM702 1124l-413 158q-6 20 -6 39q0 29 18 49.5t53 22.5l369 -207l6 -15l-10 -41z" />
<glyph unicode="&#xe9;" horiz-adv-x="1056" d="M582 973q180 0 278 -91t98 -257q0 -35 -4 -71t-14 -52h-690v-21q0 -78 20.5 -149.5t61.5 -126.5t103.5 -88t148.5 -33q98 0 185 35t144 76l27 -109q-27 -16 -65.5 -35.5t-86 -36t-103.5 -28t-118 -11.5q-115 0 -203 40t-147 109t-90 159t-31 188q0 100 32 191.5t93.5 161 t152.5 109.5t208 40zM575 858q-135 0 -209.5 -70.5t-101.5 -177.5h559q2 10 2 18.5v18.5q0 51 -20.5 91t-55 66.5t-80 40t-94.5 13.5zM408 1130l-13 41l6 15l369 207q35 -2 53.5 -22.5t18.5 -49.5q0 -8 -1 -18.5t-5 -20.5l-414 -158z" />
<glyph unicode="&#xea;" horiz-adv-x="1056" d="M582 973q180 0 278 -91t98 -257q0 -35 -4 -71t-14 -52h-690v-21q0 -78 20.5 -149.5t61.5 -126.5t103.5 -88t148.5 -33q98 0 185 35t144 76l27 -109q-27 -16 -65.5 -35.5t-86 -36t-103.5 -28t-118 -11.5q-115 0 -203 40t-147 109t-90 159t-31 188q0 100 32 191.5t93.5 161 t152.5 109.5t208 40zM575 858q-135 0 -209.5 -70.5t-101.5 -177.5h559q2 10 2 18.5v18.5q0 51 -20.5 91t-55 66.5t-80 40t-94.5 13.5zM563 1378l228 -202l4 -15l-11 -39l-16 -6l-211 125l-213 -125l-16 6l-11 39l5 15l227 202h14z" />
<glyph unicode="&#xeb;" horiz-adv-x="1056" d="M582 973q180 0 278 -91t98 -257q0 -35 -4 -71t-14 -52h-690v-21q0 -78 20.5 -149.5t61.5 -126.5t103.5 -88t148.5 -33q98 0 185 35t144 76l27 -109q-27 -16 -65.5 -35.5t-86 -36t-103.5 -28t-118 -11.5q-115 0 -203 40t-147 109t-90 159t-31 188q0 100 32 191.5t93.5 161 t152.5 109.5t208 40zM575 858q-135 0 -209.5 -70.5t-101.5 -177.5h559q2 10 2 18.5v18.5q0 51 -20.5 91t-55 66.5t-80 40t-94.5 13.5zM627 1282q0 37 24.5 64.5t59.5 27.5t60.5 -27.5t25.5 -64.5q0 -39 -26 -64.5t-60 -25.5q-35 0 -59.5 25.5t-24.5 64.5zM305 1282 q0 37 24.5 64.5t59.5 27.5t60.5 -27.5t25.5 -64.5q0 -39 -25.5 -64.5t-60.5 -25.5t-59.5 25.5t-24.5 64.5z" />
<glyph unicode="&#xec;" horiz-adv-x="462" d="M350 1124l-411 158q-8 18 -9 39q0 29 18.5 49.5t53.5 22.5l371 -207l6 -15l-12 -41zM303 0h-143v942h143v-942z" />
<glyph unicode="&#xed;" horiz-adv-x="462" d="M43 1130l-12 41l6 15l369 207q35 -2 54 -22.5t19 -49.5q0 -20 -8 -39l-414 -158zM303 0h-143v942h143v-942z" />
<glyph unicode="&#xee;" horiz-adv-x="462" d="M233 1378l226 -202l6 -15l-12 -39l-15 -6l-213 125l-211 -125l-16 6l-12 39l6 15l225 202h16zM303 0h-143v942h143v-942z" />
<glyph unicode="&#xef;" horiz-adv-x="462" d="M-16 1282q0 37 24.5 64.5t59.5 27.5t60.5 -27.5t25.5 -64.5q0 -39 -26 -64.5t-60 -25.5q-35 0 -59.5 25.5t-24.5 64.5zM305 1282q0 37 24.5 64.5t59.5 27.5t60.5 -27.5t25.5 -64.5q0 -39 -25.5 -64.5t-60.5 -25.5t-59.5 25.5t-24.5 64.5zM303 0h-143v942h143v-942z" />
<glyph unicode="&#xf0;" horiz-adv-x="1155" d="M705 1516q82 -74 151 -193l240 63l37 -98l-230 -59q63 -135 100 -300t37 -337q0 -119 -21.5 -230.5t-75.5 -197.5t-144 -137.5t-228 -51.5q-127 0 -217 43t-146 115t-83 162t-27 186q0 98 28 187.5t86 157t148.5 107.5t214.5 40q113 0 201 -38t129 -124l6 2 q-29 123 -57.5 216t-65.5 171l-256 -65l-34 94l241 63q-37 59 -82 112.5t-102 111.5h150zM571 84q84 0 144.5 34t100.5 90t59.5 129t19.5 152q0 184 -91 277.5t-237 93.5q-86 0 -146.5 -31.5t-97 -84t-54 -120t-17.5 -139.5q0 -78 18.5 -149.5t57.5 -127.5t99 -90t144 -34z " />
<glyph unicode="&#xf1;" horiz-adv-x="1116" d="M883 1358q-6 -29 -19.5 -56.5t-35 -50t-52.5 -37t-74 -14.5q-82 0 -166.5 14.5t-150.5 14.5q-51 0 -71.5 -13.5t-41.5 -37.5l-26 16q8 27 22.5 55.5t36 50t53 36t74.5 14.5q51 0 89 -4.5t71 -10.5t63.5 -10t69.5 -4q35 0 69.5 8t63.5 45zM821 0v623q0 125 -55 177 t-141 52q-51 0 -101.5 -16.5t-93.5 -48t-75.5 -77.5t-51.5 -106v-604h-143v942h112l17 -176h8q27 86 119 146.5t229 60.5q66 0 124 -17.5t101 -56.5t69 -102.5t26 -155.5v-641h-144z" />
<glyph unicode="&#xf2;" horiz-adv-x="1148" d="M700 1124l-413 158q-8 18 -8 39q0 29 18 49.5t53 22.5l371 -207l6 -15l-12 -41zM573 973q125 0 215.5 -42t148.5 -112.5t86 -162t28 -191.5t-28 -189.5t-85 -156t-146.5 -105.5t-209.5 -39q-125 0 -216.5 41t-150.5 110t-88 159t-29 190t29 190.5t87 159t148 108.5 t211 40zM580 84q82 0 142 30.5t100 83t58.5 121t18.5 144.5q0 78 -19.5 149.5t-60.5 126t-103.5 87t-148.5 32.5q-84 0 -143 -30.5t-98 -82t-57.5 -120t-18.5 -144.5q0 -78 19.5 -149.5t59.5 -126.5t102.5 -88t148.5 -33z" />
<glyph unicode="&#xf3;" horiz-adv-x="1148" d="M422 1130l-12 41l6 15l368 207q35 -2 54.5 -22.5t19.5 -49.5q0 -20 -8 -39l-414 -158zM573 973q125 0 215.5 -42t148.5 -112.5t86 -162t28 -191.5t-28 -189.5t-85 -156t-146.5 -105.5t-209.5 -39q-125 0 -216.5 41t-150.5 110t-88 159t-29 190t29 190.5t87 159t148 108.5 t211 40zM580 84q82 0 142 30.5t100 83t58.5 121t18.5 144.5q0 78 -19.5 149.5t-60.5 126t-103.5 87t-148.5 32.5q-84 0 -143 -30.5t-98 -82t-57.5 -120t-18.5 -144.5q0 -78 19.5 -149.5t59.5 -126.5t102.5 -88t148.5 -33z" />
<glyph unicode="&#xf4;" horiz-adv-x="1148" d="M598 1378l225 -202l6 -15l-10 -39l-16 -6l-213 125l-211 -125l-17 6l-12 39l6 15l228 202h14zM573 973q125 0 215.5 -42t148.5 -112.5t86 -162t28 -191.5t-28 -189.5t-85 -156t-146.5 -105.5t-209.5 -39q-125 0 -216.5 41t-150.5 110t-88 159t-29 190t29 190.5t87 159 t148 108.5t211 40zM580 84q82 0 142 30.5t100 83t58.5 121t18.5 144.5q0 78 -19.5 149.5t-60.5 126t-103.5 87t-148.5 32.5q-84 0 -143 -30.5t-98 -82t-57.5 -120t-18.5 -144.5q0 -78 19.5 -149.5t59.5 -126.5t102.5 -88t148.5 -33z" />
<glyph unicode="&#xf5;" horiz-adv-x="1148" d="M874 1358q-6 -29 -19 -56.5t-34.5 -50t-52.5 -37t-74 -14.5q-82 0 -167 14.5t-150 14.5q-51 0 -71.5 -13.5t-41.5 -37.5l-26 16q8 27 22 55.5t35.5 50t53.5 36t75 14.5q51 0 89 -4.5t70.5 -10.5t63.5 -10t70 -4q35 0 69.5 8t63.5 45zM573 973q125 0 215.5 -42 t148.5 -112.5t86 -162t28 -191.5t-28 -189.5t-85 -156t-146.5 -105.5t-209.5 -39q-125 0 -216.5 41t-150.5 110t-88 159t-29 190t29 190.5t87 159t148 108.5t211 40zM580 84q82 0 142 30.5t100 83t58.5 121t18.5 144.5q0 78 -19.5 149.5t-60.5 126t-103.5 87t-148.5 32.5 q-84 0 -143 -30.5t-98 -82t-57.5 -120t-18.5 -144.5q0 -78 19.5 -149.5t59.5 -126.5t102.5 -88t148.5 -33z" />
<glyph unicode="&#xf6;" horiz-adv-x="1148" d="M330 1282q0 37 24.5 64.5t59.5 27.5t60.5 -27.5t25.5 -64.5q0 -39 -25.5 -64.5t-60.5 -25.5t-59.5 25.5t-24.5 64.5zM651 1282q0 37 24.5 64.5t59.5 27.5t60.5 -27.5t25.5 -64.5q0 -39 -25.5 -64.5t-60.5 -25.5t-59.5 25.5t-24.5 64.5zM573 973q125 0 215.5 -42 t148.5 -112.5t86 -162t28 -191.5t-28 -189.5t-85 -156t-146.5 -105.5t-209.5 -39q-125 0 -216.5 41t-150.5 110t-88 159t-29 190t29 190.5t87 159t148 108.5t211 40zM580 84q82 0 142 30.5t100 83t58.5 121t18.5 144.5q0 78 -19.5 149.5t-60.5 126t-103.5 87t-148.5 32.5 q-84 0 -143 -30.5t-98 -82t-57.5 -120t-18.5 -144.5q0 -78 19.5 -149.5t59.5 -126.5t102.5 -88t148.5 -33z" />
<glyph unicode="&#xf7;" horiz-adv-x="1159" d="M1006 543v-107h-848v107h848zM508 164q0 39 27.5 67.5t68.5 28.5q37 0 66.5 -28.5t29.5 -67.5q0 -41 -29.5 -68.5t-66.5 -27.5q-41 0 -68.5 27.5t-27.5 68.5zM508 813q0 39 27.5 68.5t68.5 29.5q37 0 66.5 -29.5t29.5 -68.5t-29.5 -66.5t-66.5 -27.5q-41 0 -68.5 27.5 t-27.5 66.5z" />
<glyph unicode="&#xf8;" horiz-adv-x="1148" d="M199 145q-51 68 -76 153t-25 177q0 100 29 190.5t87 159t148.5 108.5t210.5 40q86 0 157 -21.5t124 -58.5l104 119l105 -80l-115 -129q53 -70 78 -157t25 -181q0 -100 -28 -189.5t-85 -156t-146.5 -105.5t-209.5 -39q-174 0 -289 80l-111 -127l-98 88zM580 84 q82 0 142 30.5t100 83t58.5 121t18.5 144.5q0 127 -49 225l-471 -536q80 -68 201 -68zM250 481q0 -59 11 -116.5t36 -106.5l469 535q-39 31 -88 48t-111 17q-84 0 -143 -30.5t-98 -82t-57.5 -120t-18.5 -144.5z" />
<glyph unicode="&#xf9;" horiz-adv-x="1114" d="M682 1124l-412 158q-8 18 -8 39q0 29 18.5 49.5t53.5 22.5l368 -207l7 -15l-11 -41zM293 942v-623q0 -63 15.5 -106t41 -68.5t61 -37t78.5 -11.5q51 0 101.5 15.5t93.5 46t76 76t51 104.5v604h143v-942h-112l-17 176h-8q-27 -86 -119 -143.5t-229 -57.5q-66 0 -124 16.5 t-101 54.5t-68.5 100.5t-25.5 154.5v641h143z" />
<glyph unicode="&#xfa;" horiz-adv-x="1114" d="M350 1130l-10 41l6 15l369 207q35 -2 53 -22.5t18 -49.5q0 -18 -6 -39l-413 -158zM293 942v-623q0 -63 15.5 -106t41 -68.5t61 -37t78.5 -11.5q51 0 101.5 15.5t93.5 46t76 76t51 104.5v604h143v-942h-112l-17 176h-8q-27 -86 -119 -143.5t-229 -57.5q-66 0 -124 16.5 t-101 54.5t-68.5 100.5t-25.5 154.5v641h143z" />
<glyph unicode="&#xfb;" horiz-adv-x="1114" d="M553 1378l227 -202l4 -15l-10 -39l-16 -6l-213 125l-211 -125l-17 6l-10 39l4 15l228 202h14zM293 942v-623q0 -63 15.5 -106t41 -68.5t61 -37t78.5 -11.5q51 0 101.5 15.5t93.5 46t76 76t51 104.5v604h143v-942h-112l-17 176h-8q-27 -86 -119 -143.5t-229 -57.5 q-66 0 -124 16.5t-101 54.5t-68.5 100.5t-25.5 154.5v641h143z" />
<glyph unicode="&#xfc;" horiz-adv-x="1114" d="M299 1282q0 37 24.5 64.5t59.5 27.5t60.5 -27.5t25.5 -64.5q0 -39 -25.5 -64.5t-60.5 -25.5t-59.5 25.5t-24.5 64.5zM621 1282q0 37 24.5 64.5t59.5 27.5t60.5 -27.5t25.5 -64.5q0 -39 -26 -64.5t-60 -25.5q-35 0 -59.5 25.5t-24.5 64.5zM293 942v-623q0 -63 15.5 -106 t41 -68.5t61 -37t78.5 -11.5q51 0 101.5 15.5t93.5 46t76 76t51 104.5v604h143v-942h-112l-17 176h-8q-27 -86 -119 -143.5t-229 -57.5q-66 0 -124 16.5t-101 54.5t-68.5 100.5t-25.5 154.5v641h143z" />
<glyph unicode="&#xfd;" horiz-adv-x="1062" d="M403 1130l-12 41l6 15l369 207q35 -2 53.5 -22.5t18.5 -49.5q0 -8 -1 -18.5t-6 -20.5l-413 -158zM606 -8q-31 -66 -74 -155t-102 -169t-139 -136t-180 -56q-16 0 -24.5 1t-18.5 5l-27 135q6 -2 14 -4t29 -2q41 0 77 8t70 33q72 51 130.5 149.5t105.5 229.5l-471 911h170 l375 -784l336 784h161z" />
<glyph unicode="&#xfe;" horiz-adv-x="1177" d="M666 973q104 0 182 -41t129 -108.5t76.5 -156.5t25.5 -188q0 -102 -27.5 -193t-82 -160t-136 -110t-190.5 -41q-137 0 -225 59.5t-115 147.5v-714h-143v2048h143v-750q20 35 56 71.5t82 66.5t102.5 49.5t122.5 19.5zM629 852q-98 0 -183.5 -53.5t-142.5 -153.5v-301 q18 -59 53 -104t81 -78t98.5 -49.5t105.5 -16.5q72 0 125 29t89 80t54.5 118.5t18.5 145.5q0 74 -17.5 143.5t-54.5 122.5t-93 85t-134 32z" />
<glyph unicode="&#xff;" horiz-adv-x="1062" d="M272 1282q0 37 25 64.5t59 27.5q35 0 60.5 -27.5t25.5 -64.5q0 -39 -25.5 -64.5t-60.5 -25.5t-59.5 25.5t-24.5 64.5zM594 1282q0 37 24.5 64.5t59.5 27.5t60.5 -27.5t25.5 -64.5q0 -39 -25.5 -64.5t-60.5 -25.5t-59.5 25.5t-24.5 64.5zM606 -8q-31 -66 -74 -155 t-102 -169t-139 -136t-180 -56q-16 0 -24.5 1t-18.5 5l-27 135q6 -2 14 -4t29 -2q41 0 77 8t70 33q72 51 130.5 149.5t105.5 229.5l-471 911h170l375 -784l336 784h161z" />
<glyph unicode="&#x152;" horiz-adv-x="1748" d="M1665 0h-709q-90 -25 -196 -25q-164 0 -285 55.5t-200.5 149.5t-119.5 218t-40 261q0 145 44 273.5t128 223.5t206.5 150.5t280.5 55.5q39 0 76 -3t72 -7h702v-144h-549v-420h412v-143h-412v-502h590v-143zM764 111q86 0 158 18v1079q-72 18 -154 19q-131 0 -223 -40 t-149.5 -113t-84 -173t-26.5 -221q0 -283 123 -426t356 -143z" />
<glyph unicode="&#x153;" horiz-adv-x="1867" d="M1393 971q180 0 278 -91.5t98 -256.5q0 -35 -4 -71t-14 -52h-690v-21q0 -78 20.5 -149.5t61.5 -127t103.5 -88t148.5 -32.5q98 0 185 35t144 76l27 -109q-27 -16 -65.5 -35.5t-86 -36t-103.5 -28t-118 -11.5q-139 0 -240.5 57.5t-158.5 151.5q-53 -94 -150.5 -151.5 t-246.5 -57.5q-125 0 -216.5 41t-150.5 110t-88 159t-29 190t29 190.5t87 159t148.5 108.5t210.5 40q152 0 250.5 -60.5t153.5 -158.5q59 98 164 158.5t252 60.5zM580 82q82 0 142 30.5t100 83t58.5 121t18.5 144.5q0 78 -19.5 149.5t-60.5 126t-103.5 87t-148.5 32.5 q-84 0 -143 -30.5t-98 -82t-57.5 -120t-18.5 -144.5q0 -78 19.5 -149.5t59.5 -127t102.5 -88t148.5 -32.5zM1386 856q-135 0 -209.5 -70.5t-101.5 -177.5h559q2 10 2 18.5v18.5q0 51 -20.5 91t-55 66.5t-80 40t-94.5 13.5z" />
<glyph unicode="&#x178;" horiz-adv-x="1159" d="M342 1626q0 37 24.5 64.5t59.5 27.5q33 0 58.5 -27.5t25.5 -64.5q0 -39 -25.5 -64.5t-58.5 -25.5q-35 0 -59.5 25.5t-24.5 64.5zM664 1626q0 37 23.5 64.5t57.5 27.5q35 0 60.5 -27.5t25.5 -64.5q0 -39 -25.5 -64.5t-60.5 -25.5t-58 25.5t-23 64.5zM-23 1352h183 l428 -650l413 650h179l-523 -797v-555h-153v547z" />
<glyph unicode="&#x2c6;" horiz-adv-x="479" d="M248 1378l225 -202l6 -15l-12 -39l-14 -6l-213 125l-213 -125l-15 6l-12 39l6 15l225 202h17z" />
<glyph unicode="&#x2dc;" horiz-adv-x="636" d="M637 1358q-6 -29 -19.5 -56.5t-35 -50t-52 -37t-73.5 -14.5q-82 0 -167 14.5t-151 14.5q-51 0 -71.5 -13.5t-40.5 -37.5l-27 16q8 27 22.5 55.5t36 50t53 36t74.5 14.5q51 0 89 -4.5t71 -10.5t63.5 -10t69.5 -4q35 0 70 8t63 45z" />
<glyph unicode="&#x2000;" horiz-adv-x="868" />
<glyph unicode="&#x2001;" horiz-adv-x="1737" />
<glyph unicode="&#x2002;" horiz-adv-x="868" />
<glyph unicode="&#x2003;" horiz-adv-x="1737" />
<glyph unicode="&#x2004;" horiz-adv-x="579" />
<glyph unicode="&#x2005;" horiz-adv-x="434" />
<glyph unicode="&#x2006;" horiz-adv-x="289" />
<glyph unicode="&#x2007;" horiz-adv-x="289" />
<glyph unicode="&#x2008;" horiz-adv-x="217" />
<glyph unicode="&#x2009;" horiz-adv-x="347" />
<glyph unicode="&#x200a;" horiz-adv-x="96" />
<glyph unicode="&#x2010;" horiz-adv-x="995" d="M844 543v-107h-692v107h692z" />
<glyph unicode="&#x2011;" horiz-adv-x="995" d="M844 543v-107h-692v107h692z" />
<glyph unicode="&#x2012;" horiz-adv-x="995" d="M844 543v-107h-692v107h692z" />
<glyph unicode="&#x2013;" horiz-adv-x="1150" d="M999 543v-107h-847v107h847z" />
<glyph unicode="&#x2014;" horiz-adv-x="1617" d="M1466 543v-107h-1314v107h1314z" />
<glyph unicode="&#x2018;" horiz-adv-x="460" d="M340 1464l-80 -149h51v-185h-161v216l149 157z" />
<glyph unicode="&#x2019;" horiz-adv-x="419" d="M127 1169l80 150h-51v184h161v-215l-149 -158z" />
<glyph unicode="&#x201a;" horiz-adv-x="497" d="M139 -160l80 150h-51v184h162v-215l-150 -158z" />
<glyph unicode="&#x201c;" horiz-adv-x="768" d="M340 1464l-80 -149h51v-185h-161v216l149 157zM647 1464l-80 -149h51v-185h-161v216l149 157z" />
<glyph unicode="&#x201d;" horiz-adv-x="727" d="M434 1169l80 150h-51v184h162v-215l-150 -158zM127 1169l80 150h-51v184h161v-215l-149 -158z" />
<glyph unicode="&#x201e;" horiz-adv-x="827" d="M139 -160l80 150h-51v184h162v-215l-150 -158zM469 -160l80 150h-51v184h161v-215l-149 -158z" />
<glyph unicode="&#x2022;" horiz-adv-x="671" d="M197 498q0 55 39.5 98t99.5 43q27 0 52.5 -11.5t45 -32t30.5 -46t11 -51.5q0 -59 -43 -98.5t-96 -39.5q-59 0 -99 39.5t-40 98.5z" />
<glyph unicode="&#x2026;" horiz-adv-x="1255" d="M145 72q0 39 27 68.5t68 29.5q39 0 68.5 -29.5t29.5 -68.5t-29.5 -67t-68.5 -28q-41 0 -68 28t-27 67zM532 72q0 39 28 68.5t67 29.5t68.5 -29.5t29.5 -68.5t-29.5 -67t-68.5 -28t-67 28t-28 67zM920 72q0 39 27.5 68.5t66.5 29.5t68.5 -29.5t29.5 -68.5t-29.5 -67 t-68.5 -28t-66.5 28t-27.5 67z" />
<glyph unicode="&#x202f;" horiz-adv-x="347" />
<glyph unicode="&#x2039;" horiz-adv-x="659" d="M248 487l295 -362h-164l-273 362v11l275 362h162l-295 -362v-11z" />
<glyph unicode="&#x203a;" horiz-adv-x="659" d="M412 498l-295 362h162l274 -362v-11l-272 -362h-164l295 362v11z" />
<glyph unicode="&#x205f;" horiz-adv-x="434" />
<glyph unicode="&#x20ac;" horiz-adv-x="1275" d="M258 844q20 113 64.5 207t114 163.5t161.5 108.5t209 39q92 0 188.5 -23.5t161.5 -64.5l-43 -148q-55 43 -135 72t-184 29q-88 0 -154 -26.5t-110 -77t-70.5 -121t-38.5 -158.5h522v-107h-532v-108h532v-107h-524q53 -412 371 -411q111 0 201.5 36.5t148.5 90.5l41 -138 q-72 -49 -171.5 -87t-226.5 -38q-121 0 -214 42t-159.5 116t-106.5 174.5t-54 214.5h-164v107h156v54.5t2 53.5h-158v107h172z" />
<glyph unicode="&#x2122;" horiz-adv-x="1415" d="M725 1186v-430h-78v581h98l201 -495l199 495h96v-581h-80v428l-172 -428h-92zM571 1257h-172v-501h-96v501h-172v80h440v-80z" />
<glyph unicode="&#xe000;" horiz-adv-x="942" d="M0 942h942v-942h-942v942z" />
</font>
</defs>
</svg>
